<svg width="96" height="96" viewBox="0 0 96 96" fill="none" xmlns="http://www.w3.org/2000/svg">
<circle cx="48" cy="48" r="48" fill="#E8E8DF"/>
<path d="M66.6668 61.0666C69.9072 60.4087 72.7876 58.5701 74.7486 55.9079C76.7097 53.2457 77.6117 49.9498 77.2794 46.66C76.9471 43.3702 75.4042 40.3212 72.9504 38.105C70.4965 35.8887 67.3067 34.6633 64.0001 34.6667H60.6401C59.7567 31.2462 58.0376 28.0986 55.6372 25.5066C53.2368 22.9146 50.2304 20.9593 46.8877 19.8162C43.545 18.673 39.9707 18.3779 36.4858 18.9573C33.0009 19.5367 29.7145 20.9725 26.9215 23.1357C24.1285 25.299 21.9165 28.1219 20.484 31.3512C19.0515 34.5805 18.4433 38.1149 18.7142 41.6373C18.985 45.1596 20.1263 48.5596 22.0357 51.5319C23.945 54.5042 26.5626 56.9558 29.6535 58.6666M50.6668 45.3333L40.0001 61.3333H56.0001L45.3335 77.3333" stroke="#006654" stroke-width="2" stroke-linecap="round" stroke-linejoin="round"/>
</svg>
