<svg width="96" height="96" viewBox="0 0 96 96" fill="none" xmlns="http://www.w3.org/2000/svg">
<circle cx="48" cy="48" r="48" fill="#E8E8DF"/>
<path d="M58.6671 50.6667V72M37.3337 50.6667V72M48.0004 56V77.3334M69.3338 60.2134C72.1371 58.9856 74.4327 56.8309 75.8353 54.1108C77.2379 51.3908 77.6621 48.271 77.0367 45.2752C76.4112 42.2794 74.7743 39.5899 72.4005 37.6583C70.0268 35.7266 67.0608 34.6703 64.0004 34.6667H60.6404C59.7951 31.3934 58.184 28.3679 55.9399 25.8395C53.6958 23.3111 50.8829 21.3523 47.7331 20.1244C44.5833 18.8965 41.1868 18.4348 37.8236 18.7772C34.4603 19.1197 31.2266 20.2566 28.3889 22.0941C25.5513 23.9317 23.191 26.4173 21.5026 29.3462C19.8141 32.275 18.8459 35.5632 18.6778 38.9396C18.5096 42.3161 19.1463 45.6842 20.5354 48.7663C21.9244 51.8484 24.0261 54.5563 26.6671 56.6667" stroke="#006654" stroke-width="2" stroke-linecap="round" stroke-linejoin="round"/>
</svg>
