<svg width="96" height="96" viewBox="0 0 96 96" fill="none" xmlns="http://www.w3.org/2000/svg">
<circle cx="48" cy="48" r="48" fill="#E8E8DF"/>
<path d="M63.2797 36.6131C64.0553 35.8395 65.0096 35.2689 66.0582 34.9518C67.1067 34.6348 68.2173 34.581 69.2916 34.7952C70.366 35.0095 71.3709 35.4852 72.2177 36.1802C73.0644 36.8753 73.7268 37.7683 74.1463 38.7803C74.5658 39.7923 74.7294 40.892 74.6227 41.9823C74.5161 43.0726 74.1424 44.1198 73.5347 45.0313C72.927 45.9427 72.1041 46.6904 71.1387 47.2082C70.1733 47.7259 69.0952 47.9978 67.9997 47.9998H21.333M41.573 28.2398C42.1925 27.6166 42.9563 27.1562 43.7967 26.8994C44.637 26.6426 45.5277 26.5974 46.3898 26.7678C47.2518 26.9382 48.0583 27.3189 48.7377 27.8762C49.4171 28.4334 49.9483 29.1499 50.284 29.9619C50.6198 30.7739 50.7497 31.6563 50.6623 32.5306C50.5748 33.405 50.2727 34.2441 49.7828 34.9735C49.2928 35.703 48.6303 36.3 47.854 36.7117C47.0777 37.1233 46.2117 37.3368 45.333 37.3331H21.333L41.573 28.2398ZM49.573 67.7598C50.1925 68.383 50.9563 68.8434 51.7967 69.1002C52.637 69.357 53.5277 69.4022 54.3898 69.2318C55.2518 69.0614 56.0583 68.6806 56.7377 68.1234C57.4171 67.5662 57.9483 66.8497 58.284 66.0377C58.6198 65.2257 58.7497 64.3433 58.6623 63.469C58.5748 62.5946 58.2727 61.7555 57.7828 61.026C57.2928 60.2966 56.6303 59.6995 55.854 59.2879C55.0777 58.8762 54.2117 58.6628 53.333 58.6665H21.333L49.573 67.7598Z" stroke="#006654" stroke-width="2" stroke-linecap="round" stroke-linejoin="round"/>
</svg>
