<svg width="24" height="25" viewBox="0 0 24 25" fill="none" xmlns="http://www.w3.org/2000/svg">
<path d="M12.0012 3.69458C9.63106 3.69458 9.33362 3.70494 8.40274 3.74731C7.47367 3.78985 6.83951 3.93694 6.28462 4.15276C5.71064 4.37567 5.22374 4.67385 4.73867 5.15913C4.25323 5.64422 3.95505 6.13113 3.73142 6.70494C3.51507 7.26003 3.3678 7.8944 3.32598 8.82313C3.28435 9.75403 3.27344 10.0517 3.27344 12.4219C3.27344 14.792 3.28398 15.0886 3.32616 16.0195C3.36889 16.9486 3.51598 17.5828 3.73161 18.1377C3.95469 18.7117 4.25286 19.1986 4.73812 19.6837C5.22301 20.1691 5.70991 20.468 6.28353 20.6909C6.83878 20.9068 7.47313 21.0539 8.40201 21.0964C9.33289 21.1388 9.63015 21.1491 12.0001 21.1491C14.3704 21.1491 14.6669 21.1388 15.5978 21.0964C16.5269 21.0539 17.1617 20.9068 17.717 20.6909C18.2908 20.468 18.777 20.1691 19.2619 19.6837C19.7473 19.1986 20.0455 18.7117 20.2691 18.1379C20.4836 17.5828 20.6309 16.9484 20.6745 16.0197C20.7164 15.0888 20.7273 14.792 20.7273 12.4219C20.7273 10.0517 20.7164 9.75422 20.6745 8.82331C20.6309 7.89422 20.4836 7.26003 20.2691 6.70513C20.0455 6.13113 19.7473 5.64422 19.2619 5.15913C18.7764 4.67367 18.291 4.37549 17.7165 4.15276C17.1601 3.93694 16.5256 3.78985 15.5965 3.74731C14.6656 3.70494 14.3693 3.69458 11.9984 3.69458H12.0012ZM11.2183 5.26731C11.4506 5.26694 11.7099 5.26731 12.0012 5.26731C14.3313 5.26731 14.6075 5.27567 15.5276 5.31749C16.3785 5.3564 16.8403 5.49858 17.1479 5.61803C17.5552 5.77622 17.8455 5.96531 18.1508 6.27076C18.4563 6.57622 18.6453 6.86713 18.8039 7.2744C18.9233 7.58167 19.0657 8.04349 19.1044 8.8944C19.1462 9.8144 19.1553 10.0908 19.1553 12.4199C19.1553 14.7489 19.1462 15.0253 19.1044 15.9453C19.0655 16.7962 18.9233 17.258 18.8039 17.5653C18.6457 17.9726 18.4563 18.2626 18.1508 18.5679C17.8454 18.8733 17.5554 19.0624 17.1479 19.2206C16.8407 19.3406 16.3785 19.4824 15.5276 19.5213C14.6076 19.5631 14.3313 19.5722 12.0012 19.5722C9.67088 19.5722 9.39471 19.5631 8.47473 19.5213C7.62385 19.482 7.16205 19.3399 6.85424 19.2204C6.44698 19.0622 6.15608 18.8731 5.85063 18.5677C5.54519 18.2622 5.3561 17.972 5.19756 17.5646C5.07811 17.2573 4.93575 16.7955 4.89702 15.9446C4.85521 15.0246 4.84684 14.7482 4.84684 12.4177C4.84684 10.0871 4.85521 9.81222 4.89702 8.89222C4.93593 8.04131 5.07811 7.57949 5.19756 7.27185C5.35574 6.86458 5.54519 6.57367 5.85063 6.26822C6.15608 5.96276 6.44698 5.77367 6.85424 5.61513C7.16186 5.49513 7.62385 5.35331 8.47473 5.31422C9.2798 5.27785 9.59179 5.26694 11.2183 5.26513V5.26731ZM16.6596 6.7164C16.0814 6.7164 15.6123 7.18494 15.6123 7.76331C15.6123 8.34149 16.0814 8.81058 16.6596 8.81058C17.2377 8.81058 17.7068 8.34149 17.7068 7.76331C17.7068 7.18513 17.2377 6.71603 16.6596 6.71603V6.7164ZM12.0012 7.94003C9.52616 7.94003 7.51949 9.94676 7.51949 12.4219C7.51949 14.8969 9.52616 16.9028 12.0012 16.9028C14.4762 16.9028 16.4821 14.8969 16.4821 12.4219C16.4821 9.94676 14.476 7.94003 12.001 7.94003H12.0012ZM12.0012 9.51276C13.6077 9.51276 14.9102 10.8151 14.9102 12.4219C14.9102 14.0284 13.6077 15.3309 12.0012 15.3309C10.3945 15.3309 9.09217 14.0284 9.09217 12.4219C9.09217 10.8151 10.3945 9.51276 12.0012 9.51276Z" fill="#E8E8DF"/>
</svg>
