<svg width="762" height="679" viewBox="0 0 762 679" fill="none" xmlns="http://www.w3.org/2000/svg">
<g clip-path="url(#clip0_1199_6734)">
<path fill-rule="evenodd" clip-rule="evenodd" d="M113.449 2.0127H648.551C709.118 2.0127 758.218 51.0586 758.218 111.56V347.975C760.422 348.753 762 350.851 762 353.318V510.084C762 512.551 760.422 514.65 758.218 515.428V1471.45C758.218 1531.95 709.118 1581 648.551 1581H113.449C52.8815 1581 3.78164 1531.95 3.78164 1471.45V539.981C1.57847 539.204 0 537.105 0 534.638V443.978C0 441.511 1.57847 439.412 3.78164 438.634V403.992C1.57847 403.214 0 401.115 0 398.648V307.989C0 305.522 1.57847 303.423 3.78164 302.645V256.67C1.57847 255.892 0 253.794 0 251.326V204.108C0 201.641 1.57847 199.542 3.78164 198.764V111.56C3.78164 51.0586 52.8815 2.0127 113.449 2.0127Z" stroke="#E8E8DF"/>
<rect x="53.8496" y="55.8501" width="219.447" height="219.394" rx="39.5" stroke="#E8E8DF"/>
<rect x="45.7969" y="49.812" width="233.539" height="230.464" rx="43.5" stroke="#E8E8DF"/>
<rect x="75.9951" y="85.0347" width="76.5086" height="76.4901" rx="38.2451" stroke="#E8E8DF"/>
<rect x="75.9951" y="175.607" width="76.5086" height="76.4901" rx="38.2451" stroke="#E8E8DF"/>
<rect x="165.583" y="130.321" width="76.5086" height="76.4901" rx="38.2451" stroke="#E8E8DF"/>
<rect x="197.795" y="226.932" width="11.0793" height="11.0764" rx="5.53819" stroke="#E8E8DF"/>
<rect x="188.735" y="91.0728" width="28.1915" height="28.1846" rx="14.0923" stroke="#E8E8DF"/>
</g>
<path d="M643.71 319.089C643.71 360.835 609.861 394.677 568.105 394.677C526.349 394.677 492.5 360.835 492.5 319.089C492.5 277.342 526.349 243.5 568.105 243.5C609.861 243.5 643.71 277.342 643.71 319.089Z" stroke="#E8E8DF"/>
<path d="M541.728 320.491L541.728 320.491C540.166 310.974 541.413 303.394 545.61 296.573C550.76 288.203 561.762 285.585 570.132 290.735C574.179 293.225 577.732 297.754 576.576 303.813L576.299 305.265L577.401 304.28C579.486 302.414 582.096 301.757 584.714 301.883C587.337 302.009 589.941 302.922 591.952 304.16C600.322 309.31 602.945 320.31 597.795 328.68C593.6 335.498 587.394 340.031 578.195 342.928L578.195 342.928C572.519 344.716 561.696 345.549 555.695 345.885L555.694 345.885C554.316 345.965 552.975 345.602 551.842 344.905C550.706 344.206 549.781 343.175 549.227 341.906C546.826 336.4 542.69 326.363 541.728 320.491Z" stroke="#E8E8DF"/>
<path d="M642.502 577.081C669.022 609.321 664.378 656.961 632.131 683.487C599.883 710.013 552.242 705.38 525.723 673.139C499.203 640.899 503.846 593.259 536.093 566.733C568.341 540.207 615.982 544.84 642.502 577.081Z" stroke="#E8E8DF"/>
<path d="M564.631 642.949L564.631 642.949C557.38 636.591 553.527 629.945 552.435 622.011C551.095 612.276 557.929 603.265 567.665 601.925C572.372 601.277 577.993 602.517 580.95 607.931L581.658 609.229L581.883 607.768C582.308 605.002 583.907 602.836 586.008 601.271C588.115 599.702 590.705 598.753 593.044 598.431C602.78 597.091 611.794 603.921 613.134 613.656C614.226 621.586 612.313 629.03 607.048 637.111L607.048 637.111C603.801 642.097 595.971 649.616 591.55 653.689L591.55 653.689C590.536 654.625 589.27 655.197 587.953 655.379C586.631 655.561 585.261 655.352 584.028 654.724C578.675 651.997 569.105 646.872 564.631 642.949Z" stroke="#E8E8DF"/>
<path d="M217.502 610.375C244.022 642.616 239.378 690.255 207.131 716.781C174.883 743.307 127.242 738.674 100.723 706.434C74.2026 674.193 78.8456 626.553 111.093 600.028C143.341 573.502 190.982 578.135 217.502 610.375Z" stroke="#E8E8DF"/>
<path d="M139.631 676.243L139.631 676.243C132.38 669.885 128.527 663.239 127.435 655.305C126.095 645.57 132.929 636.559 142.665 635.219C147.372 634.571 152.993 635.812 155.95 641.226L156.658 642.523L156.883 641.062C157.308 638.296 158.907 636.131 161.008 634.565C163.115 632.996 165.705 632.048 168.044 631.726C177.78 630.386 186.794 637.215 188.134 646.951C189.226 654.88 187.313 662.324 182.048 670.405L182.048 670.405C178.801 675.391 170.971 682.911 166.55 686.983L166.55 686.984C165.536 687.92 164.27 688.492 162.953 688.673C161.631 688.855 160.261 688.646 159.028 688.018C153.675 685.291 144.105 680.167 139.631 676.243Z" stroke="#E8E8DF"/>
<defs>
<clipPath id="clip0_1199_6734">
<rect width="762" height="1581" fill="white"/>
</clipPath>
</defs>
</svg>
