<svg width="415" height="839" viewBox="0 0 415 839" fill="none" xmlns="http://www.w3.org/2000/svg">
<path fill-rule="evenodd" clip-rule="evenodd" d="M62.4888 1L352.511 1C385.339 1 411.95 27.0222 411.95 59.122V184.556C413.145 184.969 414 186.082 414 187.391V270.566C414 271.875 413.145 272.989 411.95 273.401V780.637C411.95 812.737 385.339 838.759 352.511 838.759H62.4888C29.6615 838.759 3.04963 812.737 3.04963 780.637L3.04963 286.429C1.85552 286.016 1 284.902 1 283.593L1 235.492C1 234.183 1.85552 233.07 3.04963 232.657V214.277C1.85552 213.864 1 212.751 1 211.442L1 163.341C1 162.032 1.85552 160.918 3.04963 160.506V136.113C1.85552 135.7 1 134.587 1 133.278L1 108.225C1 106.916 1.85552 105.803 3.04963 105.39V59.122C3.04963 27.0222 29.6615 1 62.4888 1Z" fill="#141414" stroke="#141414" stroke-width="0.341237"/>
</svg>
