<svg width="24" height="25" viewBox="0 0 24 25" fill="none" xmlns="http://www.w3.org/2000/svg">
<path fill-rule="evenodd" clip-rule="evenodd" d="M4.70666 3.92188C4.04024 3.92188 3.5 4.46212 3.5 5.12854V19.7152C3.5 20.3816 4.04024 20.9218 4.70667 20.9218H19.2933C19.9598 20.9218 20.5 20.3816 20.5 19.7152V5.12854C20.5 4.46212 19.9598 3.92188 19.2933 3.92188H4.70666ZM7.31572 9.20123C8.1302 9.20123 8.79047 8.54097 8.79047 7.72649C8.79047 6.91201 8.1302 6.25174 7.31572 6.25174C6.50124 6.25174 5.84097 6.91201 5.84097 7.72649C5.84097 8.54097 6.50124 9.20123 7.31572 9.20123ZM10.1411 10.2911H12.5852V11.4108C12.5852 11.4108 13.2485 10.0843 15.0531 10.0843C16.6628 10.0843 17.9964 10.8773 17.9964 13.2945V18.3916H15.4636V13.9121C15.4636 12.4862 14.7023 12.3294 14.1222 12.3294C12.9183 12.3294 12.7122 13.3678 12.7122 14.0981V18.3916H10.1411V10.2911ZM8.6013 10.2911H6.03015V18.3916H8.6013V10.2911Z" fill="#E8E8DF"/>
</svg>
