<svg width="94" height="16" viewBox="0 0 94 16" fill="none" xmlns="http://www.w3.org/2000/svg">
<g clip-path="url(#clip0_1291_305)">
<path d="M93.3348 0.0389785H90.0009L85.8383 5.72309L82.4932 1.15487C81.9792 0.452063 81.1634 0.0371094 80.2936 0.0371094H78.3398L84.1229 8.06515L78.3398 15.9623H81.8637L85.8364 10.4465L88.9933 14.8278C89.5055 15.5399 90.3287 15.9623 91.2041 15.9623H93.3329L87.5499 8.06515L93.3348 0.0389785Z" fill="#E8E8DF"/>
<path d="M5.79608 15.8728V2.54947H0V0.128906H14.5219V2.54947H8.72392V15.8728H5.79608Z" fill="#E8E8DF"/>
<path d="M44.3295 15.8728C44.0967 15.6859 43.998 14.2411 43.9254 13.1794C43.9068 12.8953 43.8863 12.6037 43.8639 12.314C43.7168 10.3981 42.6086 9.4261 40.571 9.4261H35.6466V15.8747H32.7188V1.97377C32.7188 0.956944 33.5438 0.128906 34.557 0.128906H42.0499C45.0336 0.128906 47.0395 1.86162 47.0395 4.43919C47.0395 7.94947 43.8025 8.37003 43.8025 8.37003C43.8025 8.37003 46.2963 9.12891 46.5478 11.6354C46.816 14.3009 47.1047 15.4186 47.4641 15.8747H44.3333L44.3295 15.8728ZM35.6447 7.22797H41.398C43.1524 7.22797 44.1992 6.34573 44.1992 4.86722C44.1992 3.34573 43.186 2.43732 41.4874 2.43732H35.6447V7.22797Z" fill="#E8E8DF"/>
<path d="M65.0312 15.8728V0.128906H72.6824C76.791 0.128906 79.5531 3.36068 79.5531 8.17003C79.5531 10.8055 78.6666 13.0037 77.0574 14.3607C75.8356 15.3775 74.3158 15.8728 72.4142 15.8728H65.0331H65.0312ZM67.9591 13.385H72.1888C75.1427 13.385 76.5787 11.6784 76.5787 8.17003C76.5787 4.68031 74.9714 2.5962 72.2782 2.5962H67.9591V13.385Z" fill="#E8E8DF"/>
<path d="M27.6664 15.8709V8.79611H19.0021V15.8709H16.0742V0.126953H19.0021V6.42041H27.6664V0.126953H31.1772C30.7004 0.495177 30.5979 1.14751 30.5979 1.88583C30.5979 1.88583 30.5905 14.0223 30.5905 15.8709H27.6664Z" fill="#E8E8DF"/>
<path d="M56.0788 16C51.4542 16 48.3457 12.785 48.3457 8.00187C48.3457 3.21682 51.322 0 55.7528 0C60.1334 0 63.0389 2.91589 63.1563 7.42991C63.1563 8.13084 62.5826 8.69907 61.8767 8.69907H51.3387L51.348 8.86729C51.5026 11.6093 53.2906 13.3794 55.9 13.3794C57.9897 13.3794 59.5207 12.2822 59.9937 10.4467L60.0366 10.2804H61.3496C62.1393 10.2804 62.7167 10.1963 63.0147 9.74393L62.9756 10.1047L62.8881 10.5458C62.2511 13.8075 59.5151 15.9981 56.0806 15.9981L56.0788 16ZM55.7789 2.58879C53.7265 2.58879 51.9478 4.03925 51.5492 6.03738L51.5119 6.22804H60.1688L60.1372 6.04112C59.7721 3.8785 58.1424 2.58692 55.7789 2.58692V2.58879Z" fill="#E8E8DF"/>
</g>
<defs>
<clipPath id="clip0_1291_305">
<rect width="93.3333" height="16" fill="white"/>
</clipPath>
</defs>
</svg>
