<svg width="556" height="456" viewBox="0 0 556 456" fill="none" xmlns="http://www.w3.org/2000/svg">
<path fill-rule="evenodd" clip-rule="evenodd" d="M83.5276 1L472.783 1C516.842 1 552.559 35.9744 552.559 79.1174V247.704C554.162 248.258 555.31 249.755 555.31 251.514V363.303C555.31 365.062 554.162 366.559 552.559 367.114V1048.85C552.559 1091.99 516.842 1126.97 472.783 1126.97H83.5276C39.4682 1126.97 3.75092 1091.99 3.75092 1048.85L3.75092 384.623C2.14824 384.068 1 382.571 1 380.812L1 316.163C1 314.404 2.14824 312.907 3.75092 312.353V287.649C2.14824 287.095 1 285.598 1 283.839L1 219.19C1 217.431 2.14824 215.934 3.75092 215.379L3.75092 182.595C2.14824 182.04 1 180.544 1 178.784L1 145.113C1 143.354 2.14824 141.857 3.75092 141.302L3.75092 79.1174C3.75092 35.9744 39.4682 1 83.5276 1Z" fill="#3D3D3D" stroke="#3D3D3D" stroke-width="0.280643"/>
<path d="M19.5245 74.8982C19.4674 75.9767 19.4385 77.0626 19.4385 78.1551L19.4385 1047.64C19.4385 1081.85 47.7959 1109.58 82.7766 1109.58H472.444C507.425 1109.58 535.782 1081.85 535.782 1047.64V78.1551C535.782 78.0214 535.782 77.8879 535.781 77.7545C535.561 43.7308 507.288 16.2158 472.444 16.2158H393.844H161.376H82.7766C66.9937 16.2158 52.5592 21.8611 41.4692 31.1994C37.1969 34.7968 33.421 38.9423 30.2556 43.5243C24.0078 52.568 20.1383 63.312 19.5245 74.8982Z" fill="white" stroke="#3D3D3D" stroke-width="0.688635"/>
<mask id="mask0_1199_7063" style="mask-type:alpha" maskUnits="userSpaceOnUse" x="19" y="16" width="517" height="1094">
<path d="M19.5245 74.8982C19.4674 75.9767 19.4385 77.0626 19.4385 78.1551L19.4385 1047.64C19.4385 1081.85 47.7959 1109.58 82.7766 1109.58H472.444C507.425 1109.58 535.782 1081.85 535.782 1047.64V78.1551C535.782 78.0214 535.782 77.8879 535.781 77.7545C535.561 43.7308 507.288 16.2158 472.444 16.2158H393.844H161.376H82.7766C66.9937 16.2158 52.5592 21.8611 41.4692 31.1994C37.1969 34.7968 33.421 38.9423 30.2556 43.5243C24.0078 52.568 20.1383 63.312 19.5245 74.8982Z" fill="white"/>
</mask>
<g mask="url(#mask0_1199_7063)">
<path d="M49.8152 206.288C51.3966 206.288 52.7565 206.044 53.8951 205.556C55.0428 205.068 55.9193 204.377 56.5247 203.482C57.1392 202.588 57.4464 201.535 57.4464 200.324V200.31C57.4464 198.783 56.9811 197.586 56.0503 196.719C55.1196 195.842 53.6376 195.191 51.6044 194.767L49.5034 194.333C48.3197 194.089 47.4522 193.755 46.9009 193.33C46.3497 192.896 46.0741 192.336 46.0741 191.649V191.636C46.0741 191.111 46.2232 190.651 46.5214 190.253C46.8196 189.855 47.2488 189.548 47.8091 189.331C48.3694 189.105 49.029 188.992 49.7881 188.992C50.52 188.992 51.1661 189.101 51.7264 189.318C52.2866 189.535 52.7385 189.846 53.0819 190.253C53.4252 190.651 53.6376 191.134 53.7189 191.703L53.7325 191.88H57.0805L57.0669 191.649C56.9946 190.529 56.6512 189.548 56.0368 188.708C55.4313 187.867 54.5955 187.217 53.5292 186.756C52.4719 186.286 51.2294 186.051 49.8016 186.051C48.401 186.051 47.154 186.295 46.0606 186.783C44.9762 187.262 44.1223 187.935 43.4987 188.803C42.8843 189.661 42.5725 190.664 42.5635 191.812V191.825C42.5635 193.289 43.0379 194.477 43.9867 195.39C44.9446 196.294 46.3814 196.944 48.2971 197.342L50.4116 197.776C51.6677 198.047 52.5713 198.395 53.1225 198.819C53.6737 199.244 53.9493 199.823 53.9493 200.554V200.568C53.9493 201.128 53.7822 201.621 53.4478 202.045C53.1225 202.461 52.6571 202.782 52.0517 203.008C51.4553 203.234 50.7459 203.347 49.9236 203.347C49.1103 203.347 48.3874 203.238 47.7549 203.021C47.1223 202.796 46.6073 202.479 46.2097 202.073C45.8211 201.666 45.5816 201.183 45.4913 200.622L45.4642 200.46H42.1162L42.1297 200.676C42.211 201.833 42.5725 202.832 43.2141 203.672C43.8647 204.512 44.7503 205.159 45.8708 205.61C47.0003 206.062 48.3151 206.288 49.8152 206.288ZM65.0912 206.234C65.4437 206.234 65.7599 206.22 66.0401 206.193C66.3292 206.166 66.5732 206.139 66.772 206.112V203.577C66.6545 203.586 66.528 203.6 66.3925 203.618C66.2569 203.627 66.1078 203.631 65.9452 203.631C65.3307 203.631 64.8699 203.5 64.5626 203.238C64.2554 202.967 64.1018 202.479 64.1018 201.774V194.184H66.772V191.568H64.1018V187.935H60.6724V191.568H58.6257V194.184H60.6724V202.059C60.6724 203.541 61.0339 204.607 61.7568 205.258C62.4888 205.909 63.6002 206.234 65.0912 206.234ZM73.1291 206.193C73.7707 206.193 74.3671 206.094 74.9183 205.895C75.4696 205.696 75.962 205.416 76.3958 205.055C76.8295 204.684 77.1865 204.246 77.4666 203.74H77.5344V205.949H80.9095V196.068C80.9095 195.101 80.6655 194.261 80.1775 193.547C79.6896 192.833 79.0028 192.277 78.1172 191.88C77.2407 191.482 76.2015 191.283 74.9997 191.283C73.7888 191.283 72.7406 191.477 71.855 191.866C70.9785 192.255 70.2917 192.783 69.7947 193.452C69.2977 194.121 69.013 194.884 68.9408 195.743L68.9272 195.892H72.0583L72.0854 195.77C72.1939 195.246 72.4875 194.816 72.9665 194.482C73.4454 194.139 74.087 193.967 74.8912 193.967C75.7407 193.967 76.3913 194.175 76.8431 194.59C77.304 195.006 77.5344 195.575 77.5344 196.298V200.622C77.5344 201.192 77.3853 201.702 77.0871 202.154C76.7889 202.606 76.3822 202.963 75.8672 203.225C75.3611 203.487 74.7873 203.618 74.1457 203.618C73.3957 203.618 72.7993 203.451 72.3565 203.116C71.9137 202.773 71.6923 202.308 71.6923 201.72V201.693C71.6923 201.133 71.9092 200.681 72.343 200.338C72.7857 199.994 73.4228 199.795 74.2542 199.741L79.2829 199.429V197.193L73.7798 197.532C72.0448 197.631 70.6983 198.051 69.7405 198.792C68.7917 199.533 68.3172 200.545 68.3172 201.829V201.856C68.3172 202.705 68.5206 203.46 68.9272 204.119C69.3338 204.77 69.8986 205.281 70.6215 205.651C71.3444 206.012 72.1803 206.193 73.1291 206.193ZM88.9745 206.234C89.3269 206.234 89.6432 206.22 89.9233 206.193C90.2125 206.166 90.4564 206.139 90.6553 206.112V203.577C90.5378 203.586 90.4113 203.6 90.2757 203.618C90.1402 203.627 89.9911 203.631 89.8284 203.631C89.2139 203.631 88.7531 203.5 88.4458 203.238C88.1386 202.967 87.985 202.479 87.985 201.774V194.184H90.6553V191.568H87.985V187.935H84.5557V191.568H82.5089V194.184H84.5557V202.059C84.5557 203.541 84.9171 204.607 85.64 205.258C86.372 205.909 87.4835 206.234 88.9745 206.234ZM98.5711 206.234C99.7459 206.234 100.79 206.044 101.702 205.665C102.615 205.285 103.329 204.756 103.844 204.079C104.359 203.401 104.617 202.61 104.617 201.707V201.693C104.617 200.654 104.3 199.823 103.668 199.199C103.035 198.576 101.973 198.101 100.482 197.776L98.0967 197.247C97.3467 197.075 96.8181 196.85 96.5108 196.569C96.2036 196.289 96.05 195.941 96.05 195.526V195.512C96.05 195.16 96.1449 194.857 96.3346 194.604C96.5334 194.342 96.8136 194.139 97.175 193.994C97.5455 193.849 97.9747 193.777 98.4627 193.777C99.2579 193.777 99.8814 193.962 100.333 194.333C100.785 194.703 101.047 195.182 101.119 195.77L101.133 195.865H104.264V195.715C104.228 194.893 103.975 194.148 103.505 193.479C103.035 192.81 102.375 192.277 101.526 191.88C100.677 191.482 99.6555 191.283 98.4627 191.283C97.3151 191.283 96.3075 191.468 95.44 191.839C94.5725 192.2 93.8993 192.711 93.4204 193.371C92.9505 194.03 92.7156 194.803 92.7156 195.688V195.702C92.7156 196.759 93.0589 197.627 93.7457 198.304C94.4325 198.982 95.4671 199.475 96.8497 199.782L99.2353 200.31C99.9763 200.482 100.491 200.699 100.781 200.961C101.079 201.223 101.228 201.571 101.228 202.005V202.018C101.228 202.371 101.119 202.678 100.903 202.94C100.695 203.202 100.392 203.401 99.9944 203.536C99.6058 203.672 99.1359 203.74 98.5847 203.74C97.7353 203.74 97.0711 203.568 96.5922 203.225C96.1223 202.881 95.8196 202.398 95.684 201.774L95.6569 201.652H92.3496L92.3631 201.774C92.4625 202.66 92.7653 203.442 93.2713 204.119C93.7773 204.788 94.4731 205.308 95.3587 205.678C96.2533 206.049 97.3241 206.234 98.5711 206.234Z" fill="#141414"/>
<path d="M93.4804 111.629H96.7742L104.301 96.6483V94.0255H92.0531V96.5995H101.19V96.6727L93.4804 111.629ZM113.609 111.629H116.61V108.25H119.001V105.664H116.61V94.0255H112.133C111.653 94.79 111.169 95.5586 110.681 96.3312C110.193 97.0956 109.705 97.8642 109.217 98.6368C108.738 99.4013 108.254 100.17 107.766 100.942C107.278 101.715 106.79 102.488 106.302 103.26C105.814 104.033 105.33 104.806 104.85 105.578V108.25H113.609V111.629ZM107.692 105.737V105.639C108.083 105.021 108.473 104.407 108.864 103.797C109.254 103.179 109.644 102.561 110.035 101.943C110.433 101.325 110.828 100.711 111.218 100.101C111.608 99.4826 111.999 98.8686 112.389 98.2586C112.788 97.6405 113.182 97.0265 113.572 96.4166H113.658V105.737H107.692ZM125.113 102.516C125.902 102.516 126.605 102.337 127.223 101.979C127.841 101.622 128.329 101.138 128.687 100.528C129.053 99.9096 129.236 99.2183 129.236 98.4538V98.4416C129.236 97.669 129.053 96.9777 128.687 96.3678C128.329 95.7578 127.841 95.2739 127.223 94.9161C126.605 94.5582 125.902 94.3793 125.113 94.3793C124.332 94.3793 123.629 94.5582 123.002 94.9161C122.384 95.2739 121.896 95.7578 121.539 96.3678C121.189 96.9777 121.01 97.669 121.002 98.4416V98.4538C121.002 99.2183 121.181 99.9096 121.539 100.528C121.896 101.138 122.384 101.622 123.002 101.979C123.629 102.337 124.332 102.516 125.113 102.516ZM125.113 100.259C124.788 100.259 124.491 100.182 124.222 100.028C123.962 99.8649 123.751 99.6493 123.588 99.381C123.433 99.1044 123.356 98.7954 123.356 98.4538V98.4416C123.356 98.0919 123.433 97.7829 123.588 97.5145C123.751 97.238 123.966 97.0225 124.235 96.8679C124.503 96.7134 124.796 96.6361 125.113 96.6361C125.446 96.6361 125.747 96.7134 126.016 96.8679C126.284 97.0225 126.495 97.238 126.65 97.5145C126.804 97.7829 126.882 98.0919 126.882 98.4416V98.4538C126.882 98.7954 126.804 99.1044 126.65 99.381C126.495 99.6493 126.284 99.8649 126.016 100.028C125.755 100.182 125.454 100.259 125.113 100.259Z" fill="#141414"/>
<path d="M360.737 110.792H362.331V100.317H363.157L361.259 97.4805L366.762 110.792H368.204L373.717 97.4805L371.81 100.317H372.635V110.792H374.229V97.101H372.246L367.55 108.544H367.417L362.72 97.101H360.737V110.792ZM377.427 110.792H379.078V100.621H377.427V110.792ZM378.252 98.695C378.569 98.695 378.834 98.5843 379.049 98.3629C379.271 98.1415 379.381 97.8758 379.381 97.5659C379.381 97.2559 379.271 96.9934 379.049 96.7784C378.834 96.557 378.569 96.4463 378.252 96.4463C377.949 96.4463 377.686 96.557 377.465 96.7784C377.243 96.9934 377.133 97.2559 377.133 97.5659C377.133 97.8758 377.243 98.1415 377.465 98.3629C377.686 98.5843 377.949 98.695 378.252 98.695ZM382.057 110.792H383.708V104.777C383.708 104.182 383.816 103.673 384.031 103.249C384.252 102.819 384.562 102.487 384.96 102.253C385.359 102.019 385.827 101.902 386.365 101.902C387.174 101.902 387.772 102.123 388.158 102.566C388.544 103.009 388.737 103.683 388.737 104.587V110.792H390.388V104.208C390.388 103.006 390.081 102.079 389.467 101.428C388.854 100.77 387.978 100.441 386.839 100.441C386.086 100.441 385.463 100.593 384.97 100.896C384.483 101.194 384.11 101.608 383.85 102.139H383.708V100.621H382.057V110.792ZM393.13 106.039H399.459V104.502H393.13V106.039ZM402.485 110.792H404.079V100.317H404.905L403.007 97.4805L408.51 110.792H409.952L415.465 97.4805L413.558 100.317H414.383V110.792H415.978V97.101H413.994L409.298 108.544H409.165L404.468 97.101H402.485V110.792ZM421.908 110.973C422.363 110.973 422.784 110.906 423.17 110.774C423.562 110.641 423.91 110.448 424.213 110.195C424.523 109.935 424.786 109.625 425.001 109.265H425.134V110.792H426.785V103.819C426.785 103.117 426.633 102.512 426.329 102.006C426.026 101.5 425.586 101.114 425.01 100.849C424.435 100.577 423.733 100.441 422.904 100.441C422.17 100.441 421.519 100.558 420.949 100.792C420.38 101.02 419.918 101.339 419.564 101.75C419.216 102.155 419.001 102.626 418.919 103.164L418.909 103.221H420.551L420.56 103.192C420.693 102.781 420.953 102.465 421.338 102.244C421.731 102.016 422.237 101.902 422.856 101.902C423.609 101.902 424.175 102.07 424.555 102.405C424.941 102.734 425.134 103.215 425.134 103.847V106.988C425.134 107.475 425.007 107.911 424.754 108.297C424.507 108.677 424.166 108.98 423.729 109.208C423.299 109.429 422.806 109.54 422.249 109.54C421.655 109.54 421.164 109.398 420.779 109.113C420.393 108.828 420.2 108.43 420.2 107.918V107.899C420.2 107.399 420.377 107.01 420.731 106.732C421.092 106.453 421.651 106.292 422.411 106.248L425.959 106.02V104.711L422.211 104.938C421.035 105.001 420.124 105.292 419.479 105.811C418.833 106.324 418.511 107.029 418.511 107.927V107.946C418.511 108.56 418.66 109.094 418.957 109.55C419.254 110.005 419.659 110.356 420.171 110.603C420.684 110.849 421.262 110.973 421.908 110.973ZM428.844 110.792H430.694L433.113 106.95H433.246L435.656 110.792H437.582L434.1 105.64L437.544 100.621H435.694L433.303 104.407H433.17L430.751 100.621H428.825L432.326 105.707L428.844 110.792ZM440.97 110.897C441.305 110.897 441.589 110.777 441.823 110.536C442.064 110.296 442.184 110.011 442.184 109.682C442.184 109.347 442.064 109.062 441.823 108.828C441.589 108.594 441.305 108.477 440.97 108.477C440.641 108.477 440.356 108.594 440.116 108.828C439.882 109.062 439.765 109.347 439.765 109.682C439.765 110.011 439.882 110.296 440.116 110.536C440.356 110.777 440.641 110.897 440.97 110.897ZM440.97 103.553C441.305 103.553 441.589 103.433 441.823 103.192C442.064 102.952 442.184 102.667 442.184 102.338C442.184 102.003 442.064 101.719 441.823 101.485C441.589 101.25 441.305 101.133 440.97 101.133C440.641 101.133 440.356 101.25 440.116 101.485C439.882 101.719 439.765 102.003 439.765 102.338C439.765 102.667 439.882 102.952 440.116 103.192C440.356 103.433 440.641 103.553 440.97 103.553ZM455.287 111.096C456.211 111.096 457.033 110.894 457.754 110.489C458.482 110.084 459.051 109.527 459.462 108.819C459.88 108.11 460.088 107.304 460.088 106.399V106.38C460.088 105.501 459.892 104.717 459.5 104.027C459.114 103.338 458.58 102.794 457.897 102.395C457.22 101.997 456.451 101.798 455.591 101.798C454.977 101.798 454.424 101.899 453.93 102.101C453.443 102.297 453.029 102.557 452.687 102.879C452.352 103.202 452.096 103.553 451.919 103.932H451.606V106.38H452.175V106.371C452.175 105.776 452.311 105.248 452.583 104.786C452.861 104.318 453.235 103.955 453.703 103.695C454.177 103.43 454.708 103.297 455.297 103.297C455.891 103.297 456.42 103.43 456.881 103.695C457.349 103.961 457.713 104.331 457.972 104.805C458.238 105.273 458.371 105.811 458.371 106.418V106.437C458.371 107.019 458.232 107.551 457.953 108.031C457.681 108.512 457.308 108.892 456.834 109.17C456.366 109.448 455.844 109.587 455.268 109.587C454.693 109.587 454.171 109.445 453.703 109.161C453.235 108.876 452.861 108.49 452.583 108.003C452.311 107.516 452.175 106.975 452.175 106.38L451.767 104.103C451.767 104.021 451.767 103.939 451.767 103.857C451.767 103.774 451.77 103.692 451.777 103.61C451.808 102.655 451.947 101.779 452.194 100.982C452.447 100.178 452.833 99.5331 453.352 99.0461C453.877 98.559 454.553 98.3155 455.382 98.3155C455.844 98.3155 456.258 98.3914 456.625 98.5432C456.992 98.695 457.302 98.9101 457.555 99.1884C457.814 99.4604 458.014 99.7893 458.153 100.175L458.191 100.28H459.908L459.88 100.156C459.728 99.4793 459.443 98.8911 459.026 98.3914C458.614 97.8853 458.099 97.4931 457.479 97.2148C456.859 96.9365 456.166 96.7973 455.401 96.7973C454.294 96.7973 453.345 97.0883 452.555 97.6703C451.77 98.2522 451.169 99.0935 450.752 100.194C450.334 101.295 450.126 102.623 450.126 104.179V104.198C450.126 105.489 450.274 106.573 450.572 107.453C450.869 108.332 451.267 109.04 451.767 109.578C452.267 110.116 452.82 110.505 453.428 110.745C454.041 110.979 454.661 111.096 455.287 111.096ZM467.356 111.096C468.375 111.096 469.248 110.808 469.975 110.233C470.702 109.651 471.259 108.825 471.645 107.756C472.037 106.687 472.233 105.419 472.233 103.951V103.932C472.233 102.465 472.037 101.2 471.645 100.137C471.259 99.0682 470.702 98.2459 469.975 97.6703C469.248 97.0883 468.375 96.7973 467.356 96.7973C466.338 96.7973 465.468 97.0883 464.747 97.6703C464.026 98.2459 463.469 99.0682 463.077 100.137C462.691 101.2 462.498 102.465 462.498 103.932V103.951C462.498 105.419 462.691 106.687 463.077 107.756C463.469 108.825 464.026 109.651 464.747 110.233C465.468 110.808 466.338 111.096 467.356 111.096ZM467.356 109.606C466.698 109.606 466.135 109.379 465.667 108.923C465.199 108.462 464.839 107.81 464.586 106.969C464.339 106.121 464.216 105.115 464.216 103.951V103.932C464.216 102.769 464.339 101.766 464.586 100.925C464.839 100.083 465.199 99.4351 465.667 98.9796C466.135 98.5242 466.698 98.2965 467.356 98.2965C468.02 98.2965 468.587 98.5242 469.055 98.9796C469.529 99.4351 469.89 100.083 470.136 100.925C470.389 101.766 470.516 102.769 470.516 103.932V103.951C470.516 105.115 470.389 106.121 470.136 106.969C469.89 107.81 469.529 108.462 469.055 108.923C468.587 109.379 468.02 109.606 467.356 109.606ZM474.824 106.039H481.152V104.502H474.824V106.039ZM484.568 110.792H486.361L492.453 98.6855V97.101H483.391V98.6286H490.726V98.7424L484.568 110.792ZM500.081 110.792H501.751V107.955H503.696V106.428H501.751V97.101H499.265C498.879 97.6766 498.487 98.2712 498.089 98.8848C497.696 99.492 497.301 100.109 496.903 100.735C496.504 101.361 496.106 101.991 495.707 102.623C495.309 103.256 494.916 103.888 494.531 104.521C494.145 105.153 493.762 105.78 493.382 106.399V107.955H500.081V110.792ZM495.119 106.437V106.333C495.422 105.827 495.736 105.315 496.058 104.796C496.381 104.271 496.707 103.746 497.035 103.221C497.371 102.696 497.703 102.174 498.032 101.655C498.367 101.137 498.696 100.627 499.019 100.128C499.347 99.628 499.67 99.1409 499.986 98.6665H500.091V106.437H495.119ZM509.01 103.667C509.611 103.667 510.145 103.528 510.613 103.249C511.081 102.971 511.451 102.598 511.723 102.13C511.995 101.655 512.131 101.13 512.131 100.555V100.536C512.131 99.9601 511.995 99.4382 511.723 98.9701C511.451 98.5021 511.081 98.1289 510.613 97.8505C510.145 97.5659 509.611 97.4236 509.01 97.4236C508.409 97.4236 507.871 97.5659 507.397 97.8505C506.929 98.1289 506.558 98.5021 506.286 98.9701C506.021 99.4382 505.888 99.9601 505.888 100.536V100.555C505.888 101.13 506.021 101.655 506.286 102.13C506.558 102.598 506.929 102.971 507.397 103.249C507.865 103.528 508.402 103.667 509.01 103.667ZM509.01 102.329C508.668 102.329 508.368 102.25 508.108 102.092C507.855 101.927 507.659 101.712 507.52 101.447C507.381 101.181 507.311 100.884 507.311 100.555V100.536C507.311 100.207 507.381 99.9095 507.52 99.6438C507.659 99.3718 507.855 99.1567 508.108 98.9986C508.368 98.8405 508.668 98.7614 509.01 98.7614C509.345 98.7614 509.639 98.8405 509.892 98.9986C510.151 99.1567 510.351 99.3718 510.49 99.6438C510.635 99.9095 510.708 100.207 510.708 100.536V100.555C510.708 100.884 510.635 101.181 510.49 101.447C510.351 101.712 510.155 101.927 509.902 102.092C509.648 102.25 509.351 102.329 509.01 102.329Z" fill="#141414" fill-opacity="0.5"/>
<path d="M49.4601 0.669346C50.8336 0.669346 52.0156 0.401868 53.0059 -0.133087C53.9963 -0.668043 54.759 -1.4271 55.294 -2.41026C55.8361 -3.39342 56.1072 -4.56454 56.1072 -5.92362V-7.59355H49.7528V-5.88024H54.1554V-5.55493C54.1554 -4.68021 53.9566 -3.91031 53.559 -3.24523C53.1686 -2.58015 52.6192 -2.05965 51.9107 -1.68374C51.2095 -1.31505 50.3962 -1.13071 49.4709 -1.13071C48.4154 -1.13071 47.501 -1.38734 46.7274 -1.90061C45.9612 -2.41388 45.3684 -3.14763 44.9491 -4.10188C44.5298 -5.05612 44.3201 -6.18748 44.3201 -7.49595V-7.51764C44.3201 -8.80443 44.5298 -9.91771 44.9491 -10.8575C45.3684 -11.7973 45.9612 -12.5202 46.7274 -13.0262C47.501 -13.5323 48.4118 -13.7853 49.4601 -13.7853C50.5878 -13.7853 51.5312 -13.5142 52.2903 -12.972C53.0565 -12.4371 53.6096 -11.6672 53.9493 -10.6623L53.9927 -10.5539H56.0096L55.9663 -10.7165C55.7422 -11.6708 55.341 -12.513 54.7626 -13.2431C54.1915 -13.9733 53.4614 -14.5444 52.5722 -14.9564C51.683 -15.3757 50.6456 -15.5853 49.4601 -15.5853C48.0215 -15.5853 46.7672 -15.2528 45.6973 -14.5877C44.6274 -13.9299 43.796 -12.9973 43.2032 -11.7901C42.6177 -10.5828 42.3249 -9.15865 42.3249 -7.51764V-7.49595C42.3249 -5.83325 42.6177 -4.39104 43.2032 -3.16932C43.796 -1.9476 44.6238 -1.00058 45.6865 -0.328274C46.7564 0.336806 48.0142 0.669346 49.4601 0.669346ZM63.4918 0.582597C64.5617 0.582597 65.4906 0.340421 66.2786 -0.143931C67.0738 -0.628282 67.6883 -1.31144 68.1221 -2.19339C68.563 -3.08257 68.7835 -4.13802 68.7835 -5.35975V-5.38143C68.7835 -6.60316 68.563 -7.655 68.1221 -8.53695C67.6883 -9.42613 67.0738 -10.1093 66.2786 -10.5864C65.4906 -11.0635 64.5581 -11.3021 63.481 -11.3021C62.4183 -11.3021 61.4893 -11.0635 60.6941 -10.5864C59.8989 -10.1093 59.2808 -9.42613 58.8399 -8.53695C58.4061 -7.655 58.1892 -6.60316 58.1892 -5.38143V-5.35975C58.1892 -4.14525 58.4061 -3.09342 58.8399 -2.20423C59.2808 -1.31505 59.8989 -0.628282 60.6941 -0.143931C61.4893 0.340421 62.4219 0.582597 63.4918 0.582597ZM63.5026 -1.08733C62.8014 -1.08733 62.1978 -1.25722 61.6917 -1.59699C61.1929 -1.93675 60.8062 -2.42472 60.5315 -3.06088C60.2568 -3.69705 60.1194 -4.46334 60.1194 -5.35975V-5.38143C60.1194 -6.28508 60.2568 -7.05136 60.5315 -7.6803C60.8062 -8.31646 61.1929 -8.80081 61.6917 -9.13335C62.1978 -9.46589 62.7942 -9.63216 63.481 -9.63216C64.1822 -9.63216 64.7822 -9.46589 65.281 -9.13335C65.787 -8.80081 66.1738 -8.31646 66.4413 -7.6803C66.716 -7.05136 66.8533 -6.28508 66.8533 -5.38143V-5.35975C66.8533 -4.46334 66.716 -3.69705 66.4413 -3.06088C66.1738 -2.42472 65.7907 -1.93675 65.2918 -1.59699C64.793 -1.25722 64.1966 -1.08733 63.5026 -1.08733ZM75.8753 0.582597C76.9452 0.582597 77.8741 0.340421 78.6621 -0.143931C79.4573 -0.628282 80.0718 -1.31144 80.5055 -2.19339C80.9465 -3.08257 81.167 -4.13802 81.167 -5.35975V-5.38143C81.167 -6.60316 80.9465 -7.655 80.5055 -8.53695C80.0718 -9.42613 79.4573 -10.1093 78.6621 -10.5864C77.8741 -11.0635 76.9416 -11.3021 75.8644 -11.3021C74.8018 -11.3021 73.8728 -11.0635 73.0776 -10.5864C72.2824 -10.1093 71.6643 -9.42613 71.2233 -8.53695C70.7896 -7.655 70.5727 -6.60316 70.5727 -5.38143V-5.35975C70.5727 -4.14525 70.7896 -3.09342 71.2233 -2.20423C71.6643 -1.31505 72.2824 -0.628282 73.0776 -0.143931C73.8728 0.340421 74.8054 0.582597 75.8753 0.582597ZM75.8861 -1.08733C75.1849 -1.08733 74.5813 -1.25722 74.0752 -1.59699C73.5764 -1.93675 73.1897 -2.42472 72.915 -3.06088C72.6403 -3.69705 72.5029 -4.46334 72.5029 -5.35975V-5.38143C72.5029 -6.28508 72.6403 -7.05136 72.915 -7.6803C73.1897 -8.31646 73.5764 -8.80081 74.0752 -9.13335C74.5813 -9.46589 75.1777 -9.63216 75.8644 -9.63216C76.5657 -9.63216 77.1657 -9.46589 77.6645 -9.13335C78.1705 -8.80081 78.5573 -8.31646 78.8248 -7.6803C79.0995 -7.05136 79.2368 -6.28508 79.2368 -5.38143V-5.35975C79.2368 -4.46334 79.0995 -3.69705 78.8248 -3.06088C78.5573 -2.42472 78.1742 -1.93675 77.6753 -1.59699C77.1765 -1.25722 76.5801 -1.08733 75.8861 -1.08733ZM87.8034 0.582597C88.613 0.582597 89.3251 0.394639 89.9396 0.0187245C90.5613 -0.35719 91.0492 -0.870458 91.4035 -1.52108H91.5119V0.365723H93.3987V-15.5853H91.5119V-9.23095H91.4035C91.0709 -9.86711 90.583 -10.3695 89.9396 -10.7382C89.3034 -11.1141 88.5841 -11.3021 87.7817 -11.3021C86.8202 -11.3021 85.978 -11.0563 85.2551 -10.5647C84.5322 -10.0804 83.9683 -9.3936 83.5635 -8.50442C83.1586 -7.62246 82.9562 -6.57786 82.9562 -5.37059V-5.35975C82.9562 -4.15971 83.155 -3.1151 83.5526 -2.22592C83.9575 -1.33674 84.5213 -0.646355 85.2442 -0.154775C85.9744 0.336806 86.8274 0.582597 87.8034 0.582597ZM88.1937 -1.08733C87.5142 -1.08733 86.925 -1.25722 86.4262 -1.59699C85.9346 -1.94398 85.5551 -2.43556 85.2876 -3.07173C85.0201 -3.71512 84.8864 -4.47779 84.8864 -5.35975V-5.37059C84.8864 -6.25977 85.0201 -7.01883 85.2876 -7.64777C85.5551 -8.28393 85.9346 -8.7719 86.4262 -9.11166C86.925 -9.45866 87.5142 -9.63216 88.1937 -9.63216C88.866 -9.63216 89.4516 -9.45505 89.9504 -9.10082C90.4492 -8.75382 90.836 -8.26224 91.1107 -7.62608C91.3926 -6.98992 91.5336 -6.23809 91.5336 -5.37059V-5.35975C91.5336 -4.49225 91.3962 -3.73681 91.1215 -3.09342C90.8468 -2.45725 90.4564 -1.96206 89.9504 -1.60783C89.4516 -1.26083 88.866 -1.08733 88.1937 -1.08733ZM101.748 0.365723H103.635V-6.78027C103.635 -7.31523 103.747 -7.79596 103.971 -8.22248C104.203 -8.65623 104.517 -8.99961 104.915 -9.25263C105.312 -9.50565 105.761 -9.63216 106.259 -9.63216C106.975 -9.63216 107.546 -9.42613 107.973 -9.01407C108.406 -8.60201 108.623 -8.04898 108.623 -7.35499V0.365723H110.51V-6.95377C110.51 -7.45981 110.618 -7.91524 110.835 -8.32007C111.059 -8.72491 111.367 -9.04299 111.757 -9.27432C112.155 -9.51288 112.61 -9.63216 113.123 -9.63216C113.904 -9.63216 114.497 -9.41529 114.902 -8.98154C115.307 -8.54779 115.509 -7.92609 115.509 -7.11643V0.365723H117.396V-7.55017C117.396 -8.33092 117.248 -8.99961 116.951 -9.55626C116.655 -10.1201 116.228 -10.5503 115.672 -10.8467C115.122 -11.1503 114.464 -11.3021 113.698 -11.3021C113.17 -11.3021 112.675 -11.2153 112.213 -11.0418C111.75 -10.8756 111.341 -10.6334 110.987 -10.3153C110.64 -10.0045 110.362 -9.62855 110.152 -9.18757H110.044C109.877 -9.62855 109.643 -10.0045 109.339 -10.3153C109.035 -10.6334 108.674 -10.8756 108.255 -11.0418C107.842 -11.2153 107.376 -11.3021 106.856 -11.3021C106.111 -11.3021 105.468 -11.1286 104.926 -10.7816C104.383 -10.4418 103.986 -9.97916 103.733 -9.3936H103.635V-11.0961H101.748V0.365723ZM124.976 0.582597C126.045 0.582597 126.974 0.340421 127.762 -0.143931C128.558 -0.628282 129.172 -1.31144 129.606 -2.19339C130.047 -3.08257 130.267 -4.13802 130.267 -5.35975V-5.38143C130.267 -6.60316 130.047 -7.655 129.606 -8.53695C129.172 -9.42613 128.558 -10.1093 127.762 -10.5864C126.974 -11.0635 126.042 -11.3021 124.965 -11.3021C123.902 -11.3021 122.973 -11.0635 122.178 -10.5864C121.383 -10.1093 120.765 -9.42613 120.324 -8.53695C119.89 -7.655 119.673 -6.60316 119.673 -5.38143V-5.35975C119.673 -4.14525 119.89 -3.09342 120.324 -2.20423C120.765 -1.31505 121.383 -0.628282 122.178 -0.143931C122.973 0.340421 123.906 0.582597 124.976 0.582597ZM124.986 -1.08733C124.285 -1.08733 123.682 -1.25722 123.175 -1.59699C122.677 -1.93675 122.29 -2.42472 122.015 -3.06088C121.74 -3.69705 121.603 -4.46334 121.603 -5.35975V-5.38143C121.603 -6.28508 121.74 -7.05136 122.015 -7.6803C122.29 -8.31646 122.677 -8.80081 123.175 -9.13335C123.682 -9.46589 124.278 -9.63216 124.965 -9.63216C125.666 -9.63216 126.266 -9.46589 126.765 -9.13335C127.271 -8.80081 127.658 -8.31646 127.925 -7.6803C128.2 -7.05136 128.337 -6.28508 128.337 -5.38143V-5.35975C128.337 -4.46334 128.2 -3.69705 127.925 -3.06088C127.658 -2.42472 127.274 -1.93675 126.776 -1.59699C126.277 -1.25722 125.68 -1.08733 124.986 -1.08733ZM132.631 0.365723H134.518V-6.72605C134.518 -7.29715 134.63 -7.78873 134.854 -8.20079C135.085 -8.62008 135.404 -8.94178 135.808 -9.16588C136.22 -9.38999 136.694 -9.50204 137.229 -9.50204C137.446 -9.50204 137.645 -9.49119 137.825 -9.46951C138.013 -9.45505 138.172 -9.42975 138.302 -9.3936V-11.2262C138.223 -11.2406 138.104 -11.2551 137.945 -11.2696C137.793 -11.2912 137.63 -11.3021 137.457 -11.3021C136.755 -11.3021 136.155 -11.1214 135.657 -10.7599C135.165 -10.3984 134.818 -9.89964 134.616 -9.26348H134.518V-11.0961H132.631V0.365723ZM140.287 0.365723H142.174V-6.40074C142.174 -7.05859 142.297 -7.62969 142.542 -8.11404C142.788 -8.5984 143.131 -8.9707 143.572 -9.23095C144.021 -9.49842 144.548 -9.63216 145.156 -9.63216C146.052 -9.63216 146.717 -9.38276 147.151 -8.88395C147.592 -8.39237 147.812 -7.655 147.812 -6.67183V0.365723H149.699V-7.06221C149.699 -8.39237 149.352 -9.42975 148.658 -10.1743C147.964 -10.9262 146.981 -11.3021 145.709 -11.3021C144.856 -11.3021 144.144 -11.1286 143.572 -10.7816C143.009 -10.4418 142.575 -9.99 142.271 -9.42613H142.174V-11.0961H140.287V0.365723ZM152.627 0.365723H154.514V-11.0961H152.627V0.365723ZM153.57 -13.1564C153.917 -13.1564 154.21 -13.2756 154.449 -13.5142C154.687 -13.76 154.807 -14.0528 154.807 -14.3925C154.807 -14.7395 154.687 -15.0323 154.449 -15.2709C154.21 -15.5094 153.917 -15.6287 153.57 -15.6287C153.231 -15.6287 152.938 -15.5094 152.692 -15.2709C152.453 -15.0323 152.334 -14.7395 152.334 -14.3925C152.334 -14.0528 152.453 -13.76 152.692 -13.5142C152.938 -13.2756 153.231 -13.1564 153.57 -13.1564ZM157.528 0.365723H159.415V-6.40074C159.415 -7.05859 159.538 -7.62969 159.784 -8.11404C160.03 -8.5984 160.373 -8.9707 160.814 -9.23095C161.262 -9.49842 161.79 -9.63216 162.397 -9.63216C163.294 -9.63216 163.959 -9.38276 164.392 -8.88395C164.833 -8.39237 165.054 -7.655 165.054 -6.67183V0.365723H166.941V-7.06221C166.941 -8.39237 166.594 -9.42975 165.9 -10.1743C165.206 -10.9262 164.222 -11.3021 162.95 -11.3021C162.097 -11.3021 161.385 -11.1286 160.814 -10.7816C160.25 -10.4418 159.816 -9.99 159.513 -9.42613H159.415V-11.0961H157.528V0.365723ZM174.564 4.42126C175.605 4.42126 176.505 4.24415 177.264 3.88992C178.03 3.5357 178.619 3.03689 179.031 2.39349C179.443 1.7501 179.649 0.991042 179.649 0.116318V-11.0961H177.763V-9.17673H177.676C177.445 -9.60325 177.152 -9.97555 176.798 -10.2936C176.443 -10.6117 176.038 -10.8575 175.583 -11.031C175.128 -11.2117 174.629 -11.3021 174.087 -11.3021C173.103 -11.3021 172.247 -11.0599 171.517 -10.5756C170.787 -10.0984 170.219 -9.42975 169.814 -8.56948C169.409 -7.71644 169.207 -6.72244 169.207 -5.58746V-5.56578C169.207 -4.4308 169.406 -3.43318 169.803 -2.57292C170.208 -1.71265 170.772 -1.04034 171.495 -0.555991C172.225 -0.0788687 173.075 0.159693 174.043 0.159693C174.585 0.159693 175.084 0.0801721 175.54 -0.0788687C176.002 -0.245139 176.414 -0.480085 176.776 -0.783709C177.137 -1.08733 177.434 -1.4524 177.665 -1.87892H177.773V-0.0246503C177.773 0.842845 177.492 1.52238 176.928 2.01396C176.364 2.50554 175.572 2.75133 174.553 2.75133C173.758 2.75133 173.103 2.62121 172.59 2.36096C172.077 2.10794 171.748 1.77179 171.603 1.3525L171.571 1.29828H169.652V1.3525C169.767 1.94529 170.035 2.47301 170.454 2.93568C170.873 3.39834 171.43 3.7598 172.124 4.02005C172.825 4.28752 173.638 4.42126 174.564 4.42126ZM174.455 -1.51024C173.769 -1.51024 173.176 -1.67651 172.677 -2.00905C172.178 -2.34881 171.795 -2.82232 171.528 -3.42957C171.267 -4.03682 171.137 -4.74889 171.137 -5.56578V-5.58746C171.137 -6.39713 171.267 -7.10558 171.528 -7.71283C171.795 -8.32007 172.178 -8.78997 172.677 -9.12251C173.176 -9.46228 173.769 -9.63216 174.455 -9.63216C175.135 -9.63216 175.724 -9.46228 176.223 -9.12251C176.722 -8.78274 177.105 -8.30923 177.372 -7.70198C177.647 -7.09474 177.784 -6.3899 177.784 -5.58746V-5.56578C177.784 -4.76334 177.647 -4.05489 177.372 -3.44041C177.105 -2.83317 176.722 -2.35966 176.223 -2.01989C175.724 -1.68012 175.135 -1.51024 174.455 -1.51024ZM188.151 0.365723H190.081V-11.8876H191.014L189.062 -13.525L198.745 0.365723H200.643V-15.2817H198.713V-3.00667H197.791L199.743 -1.38011L190.049 -15.2817H188.151V0.365723ZM206.932 0.582597C207.445 0.582597 207.926 0.503076 208.374 0.344035C208.823 0.177765 209.224 -0.0535668 209.578 -0.349961C209.939 -0.653584 210.236 -1.01143 210.467 -1.42349H210.565V0.365723H212.452V-7.51764C212.452 -8.29839 212.274 -8.9707 211.92 -9.53457C211.573 -10.0984 211.071 -10.5322 210.413 -10.8358C209.762 -11.1467 208.978 -11.3021 208.06 -11.3021C207.207 -11.3021 206.455 -11.1611 205.804 -10.8792C205.161 -10.6045 204.644 -10.2213 204.254 -9.72975C203.871 -9.2454 203.643 -8.69599 203.571 -8.08151L203.56 -7.98392H205.403L205.425 -8.04898C205.555 -8.53333 205.841 -8.91648 206.282 -9.19841C206.73 -9.48758 207.312 -9.63216 208.027 -9.63216C208.851 -9.63216 209.48 -9.43698 209.914 -9.0466C210.348 -8.66346 210.565 -8.12127 210.565 -7.42005V-3.95007C210.565 -3.40065 210.424 -2.90546 210.142 -2.46448C209.86 -2.03073 209.477 -1.68735 208.992 -1.43433C208.508 -1.18131 207.959 -1.0548 207.344 -1.0548C206.665 -1.0548 206.112 -1.21746 205.685 -1.54277C205.259 -1.86808 205.045 -2.31267 205.045 -2.87654V-2.89823C205.045 -3.44764 205.251 -3.88139 205.663 -4.19947C206.076 -4.51755 206.686 -4.69828 207.496 -4.74166L211.508 -4.99106V-6.47665L207.279 -6.22724C205.956 -6.15495 204.93 -5.82603 204.2 -5.24047C203.477 -4.66214 203.115 -3.87416 203.115 -2.87654V-2.85485C203.115 -2.16086 203.278 -1.55361 203.603 -1.03311C203.928 -0.519846 204.38 -0.122243 204.959 0.159693C205.537 0.441629 206.195 0.582597 206.932 0.582597ZM219.207 0.528378C219.395 0.528378 219.58 0.517534 219.76 0.495847C219.941 0.47416 220.104 0.452472 220.248 0.430785V-1.13071C220.125 -1.11625 220.01 -1.1054 219.901 -1.09818C219.793 -1.09095 219.67 -1.08733 219.533 -1.08733C218.976 -1.08733 218.567 -1.21023 218.307 -1.45602C218.047 -1.70904 217.917 -2.15724 217.917 -2.80064V-9.53457H220.248V-11.0961H217.917V-14.1323H215.965V-11.0961H214.23V-9.53457H215.965V-2.58376C215.965 -1.48493 216.225 -0.68973 216.746 -0.198149C217.273 0.286202 218.094 0.528378 219.207 0.528378ZM225.757 0.582597C226.27 0.582597 226.751 0.503076 227.199 0.344035C227.647 0.177765 228.048 -0.0535668 228.403 -0.349961C228.764 -0.653584 229.061 -1.01143 229.292 -1.42349H229.389V0.365723H231.276V-7.51764C231.276 -8.29839 231.099 -8.9707 230.745 -9.53457C230.398 -10.0984 229.895 -10.5322 229.238 -10.8358C228.587 -11.1467 227.803 -11.3021 226.885 -11.3021C226.032 -11.3021 225.28 -11.1611 224.629 -10.8792C223.986 -10.6045 223.469 -10.2213 223.078 -9.72975C222.695 -9.2454 222.468 -8.69599 222.395 -8.08151L222.384 -7.98392H224.228L224.25 -8.04898C224.38 -8.53333 224.665 -8.91648 225.106 -9.19841C225.554 -9.48758 226.136 -9.63216 226.852 -9.63216C227.676 -9.63216 228.305 -9.43698 228.739 -9.0466C229.173 -8.66346 229.389 -8.12127 229.389 -7.42005V-3.95007C229.389 -3.40065 229.248 -2.90546 228.967 -2.46448C228.685 -2.03073 228.301 -1.68735 227.817 -1.43433C227.333 -1.18131 226.783 -1.0548 226.169 -1.0548C225.489 -1.0548 224.936 -1.21746 224.51 -1.54277C224.083 -1.86808 223.87 -2.31267 223.87 -2.87654V-2.89823C223.87 -3.44764 224.076 -3.88139 224.488 -4.19947C224.9 -4.51755 225.511 -4.69828 226.321 -4.74166L230.333 -4.99106V-6.47665L226.104 -6.22724C224.781 -6.15495 223.754 -5.82603 223.024 -5.24047C222.301 -4.66214 221.94 -3.87416 221.94 -2.87654V-2.85485C221.94 -2.16086 222.102 -1.55361 222.428 -1.03311C222.753 -0.519846 223.205 -0.122243 223.783 0.159693C224.362 0.441629 225.019 0.582597 225.757 0.582597ZM234.247 0.365723H236.134V-15.5853H234.247V0.365723ZM239.246 0.365723H241.133V-11.0961H239.246V0.365723ZM240.19 -13.1564C240.537 -13.1564 240.83 -13.2756 241.068 -13.5142C241.307 -13.76 241.426 -14.0528 241.426 -14.3925C241.426 -14.7395 241.307 -15.0323 241.068 -15.2709C240.83 -15.5094 240.537 -15.6287 240.19 -15.6287C239.85 -15.6287 239.557 -15.5094 239.311 -15.2709C239.073 -15.0323 238.954 -14.7395 238.954 -14.3925C238.954 -14.0528 239.073 -13.76 239.311 -13.5142C239.557 -13.2756 239.85 -13.1564 240.19 -13.1564ZM248.843 0.582597C249.486 0.582597 250.079 0.495847 250.621 0.322348C251.164 0.148849 251.637 -0.0897124 252.042 -0.393336C252.454 -0.696959 252.79 -1.04396 253.05 -1.43433C253.311 -1.8247 253.488 -2.23676 253.582 -2.67051L253.603 -2.77895H251.738L251.695 -2.68135C251.594 -2.39219 251.417 -2.12833 251.164 -1.88977C250.911 -1.6512 250.592 -1.45963 250.209 -1.31505C249.826 -1.17047 249.385 -1.09818 248.886 -1.09818C248.192 -1.09818 247.592 -1.24999 247.086 -1.55361C246.58 -1.86446 246.186 -2.30544 245.904 -2.87654C245.63 -3.45487 245.492 -4.14887 245.492 -4.95853V-5.6959C245.492 -6.54894 245.633 -7.26824 245.915 -7.8538C246.197 -8.43936 246.58 -8.88033 247.065 -9.17673C247.549 -9.48035 248.098 -9.63216 248.713 -9.63216C249.327 -9.63216 249.87 -9.48758 250.339 -9.19841C250.809 -8.91648 251.178 -8.48634 251.446 -7.90801C251.72 -7.32968 251.858 -6.59231 251.858 -5.6959V-4.95853L252.801 -6.32484H244.538V-4.83925H253.744V-5.55493C253.744 -6.69714 253.542 -7.69837 253.137 -8.55864C252.74 -9.42613 252.165 -10.0984 251.413 -10.5756C250.661 -11.0599 249.765 -11.3021 248.724 -11.3021C247.683 -11.3021 246.775 -11.0491 246.002 -10.543C245.236 -10.0442 244.639 -9.34661 244.213 -8.4502C243.786 -7.55379 243.573 -6.51279 243.573 -5.32722V-5.31637C243.573 -4.12357 243.783 -3.08257 244.202 -2.19339C244.628 -1.31144 245.236 -0.628282 246.024 -0.143931C246.812 0.340421 247.751 0.582597 248.843 0.582597ZM257.442 0.495847C257.811 0.495847 258.122 0.369337 258.375 0.116318C258.628 -0.143931 258.754 -0.454783 258.754 -0.81624C258.754 -1.18493 258.628 -1.49578 258.375 -1.7488C258.122 -2.00182 257.811 -2.12833 257.442 -2.12833C257.081 -2.12833 256.77 -2.00182 256.51 -1.7488C256.256 -1.49578 256.13 -1.18493 256.13 -0.81624C256.13 -0.454783 256.256 -0.143931 256.51 0.116318C256.77 0.369337 257.081 0.495847 257.442 0.495847ZM266.659 0.365723H268.611V-15.2817H266.659V0.365723ZM275.703 0.528378C275.891 0.528378 276.075 0.517534 276.256 0.495847C276.437 0.47416 276.599 0.452472 276.744 0.430785V-1.13071C276.621 -1.11625 276.505 -1.1054 276.397 -1.09818C276.288 -1.09095 276.166 -1.08733 276.028 -1.08733C275.472 -1.08733 275.063 -1.21023 274.803 -1.45602C274.543 -1.70904 274.412 -2.15724 274.412 -2.80064V-9.53457H276.744V-11.0961H274.412V-14.1323H272.461V-11.0961H270.726V-9.53457H272.461V-2.58376C272.461 -1.48493 272.721 -0.68973 273.241 -0.198149C273.769 0.286202 274.59 0.528378 275.703 0.528378ZM278.956 -9.59963H280.322L281.96 -15.2817H279.899L278.956 -9.59963ZM287.165 0.582597C288.025 0.582597 288.795 0.438014 289.474 0.148849C290.161 -0.147545 290.7 -0.552377 291.09 -1.06564C291.488 -1.58614 291.686 -2.18255 291.686 -2.85485V-2.87654C291.686 -3.69343 291.437 -4.34405 290.938 -4.82841C290.439 -5.31999 289.63 -5.70313 288.509 -5.97784L286.709 -6.41159C286.059 -6.5634 285.589 -6.77304 285.3 -7.04052C285.01 -7.308 284.866 -7.63331 284.866 -8.01645V-8.03814C284.866 -8.37791 284.96 -8.6743 285.148 -8.92732C285.343 -9.18034 285.614 -9.37553 285.961 -9.51288C286.308 -9.65746 286.709 -9.72975 287.165 -9.72975C287.866 -9.72975 288.426 -9.57433 288.845 -9.26348C289.272 -8.95262 289.536 -8.54056 289.637 -8.0273V-7.98392H291.459V-8.05983C291.394 -8.69599 291.177 -9.25625 290.808 -9.7406C290.447 -10.2322 289.955 -10.6153 289.333 -10.89C288.712 -11.1647 287.989 -11.3021 287.165 -11.3021C286.355 -11.3021 285.628 -11.1575 284.985 -10.8683C284.349 -10.5864 283.846 -10.1924 283.478 -9.68638C283.116 -9.18034 282.936 -8.60201 282.936 -7.95139V-7.94055C282.936 -7.11643 283.192 -6.45135 283.706 -5.94531C284.226 -5.43927 285.025 -5.05974 286.102 -4.80672L287.902 -4.37297C288.582 -4.2067 289.059 -3.99344 289.333 -3.73319C289.615 -3.47294 289.756 -3.1404 289.756 -2.73557V-2.72473C289.756 -2.37773 289.648 -2.07411 289.431 -1.81386C289.221 -1.55361 288.925 -1.3512 288.542 -1.20661C288.166 -1.06203 287.718 -0.989739 287.197 -0.989739C286.445 -0.989739 285.845 -1.14155 285.397 -1.44517C284.956 -1.75603 284.671 -2.17532 284.54 -2.70304L284.519 -2.7681H282.621V-2.71389C282.701 -2.05604 282.932 -1.47771 283.315 -0.978895C283.698 -0.487314 284.215 -0.104171 284.866 0.170536C285.524 0.445243 286.29 0.582597 287.165 0.582597ZM302.639 0.582597C303.152 0.582597 303.633 0.503076 304.081 0.344035C304.529 0.177765 304.93 -0.0535668 305.284 -0.349961C305.646 -0.653584 305.942 -1.01143 306.174 -1.42349H306.271V0.365723H308.158V-7.51764C308.158 -8.29839 307.981 -8.9707 307.627 -9.53457C307.28 -10.0984 306.777 -10.5322 306.119 -10.8358C305.469 -11.1467 304.684 -11.3021 303.766 -11.3021C302.913 -11.3021 302.161 -11.1611 301.511 -10.8792C300.867 -10.6045 300.351 -10.2213 299.96 -9.72975C299.577 -9.2454 299.349 -8.69599 299.277 -8.08151L299.266 -7.98392H301.11L301.131 -8.04898C301.261 -8.53333 301.547 -8.91648 301.988 -9.19841C302.436 -9.48758 303.018 -9.63216 303.734 -9.63216C304.558 -9.63216 305.187 -9.43698 305.621 -9.0466C306.054 -8.66346 306.271 -8.12127 306.271 -7.42005V-3.95007C306.271 -3.40065 306.13 -2.90546 305.848 -2.46448C305.566 -2.03073 305.183 -1.68735 304.699 -1.43433C304.215 -1.18131 303.665 -1.0548 303.051 -1.0548C302.371 -1.0548 301.818 -1.21746 301.392 -1.54277C300.965 -1.86808 300.752 -2.31267 300.752 -2.87654V-2.89823C300.752 -3.44764 300.958 -3.88139 301.37 -4.19947C301.782 -4.51755 302.393 -4.69828 303.202 -4.74166L307.215 -4.99106V-6.47665L302.986 -6.22724C301.663 -6.15495 300.636 -5.82603 299.906 -5.24047C299.183 -4.66214 298.822 -3.87416 298.822 -2.87654V-2.85485C298.822 -2.16086 298.984 -1.55361 299.31 -1.03311C299.635 -0.519846 300.087 -0.122243 300.665 0.159693C301.243 0.441629 301.901 0.582597 302.639 0.582597ZM321.127 4.42126C322.168 4.42126 323.068 4.24415 323.827 3.88992C324.593 3.5357 325.183 3.03689 325.595 2.39349C326.007 1.7501 326.213 0.991042 326.213 0.116318V-11.0961H324.326V-9.17673H324.239C324.008 -9.60325 323.715 -9.97555 323.361 -10.2936C323.007 -10.6117 322.602 -10.8575 322.146 -11.031C321.691 -11.2117 321.192 -11.3021 320.65 -11.3021C319.667 -11.3021 318.81 -11.0599 318.08 -10.5756C317.35 -10.0984 316.782 -9.42975 316.378 -8.56948C315.973 -7.71644 315.77 -6.72244 315.77 -5.58746V-5.56578C315.77 -4.4308 315.969 -3.43318 316.367 -2.57292C316.772 -1.71265 317.335 -1.04034 318.058 -0.555991C318.788 -0.0788687 319.638 0.159693 320.607 0.159693C321.149 0.159693 321.648 0.0801721 322.103 -0.0788687C322.566 -0.245139 322.978 -0.480085 323.339 -0.783709C323.701 -1.08733 323.997 -1.4524 324.228 -1.87892H324.337V-0.0246503C324.337 0.842845 324.055 1.52238 323.491 2.01396C322.927 2.50554 322.136 2.75133 321.116 2.75133C320.321 2.75133 319.667 2.62121 319.154 2.36096C318.64 2.10794 318.311 1.77179 318.167 1.3525L318.134 1.29828H316.215V1.3525C316.331 1.94529 316.598 2.47301 317.017 2.93568C317.437 3.39834 317.993 3.7598 318.687 4.02005C319.388 4.28752 320.202 4.42126 321.127 4.42126ZM321.019 -1.51024C320.332 -1.51024 319.739 -1.67651 319.24 -2.00905C318.741 -2.34881 318.358 -2.82232 318.091 -3.42957C317.831 -4.03682 317.7 -4.74889 317.7 -5.56578V-5.58746C317.7 -6.39713 317.831 -7.10558 318.091 -7.71283C318.358 -8.32007 318.741 -8.78997 319.24 -9.12251C319.739 -9.46228 320.332 -9.63216 321.019 -9.63216C321.698 -9.63216 322.287 -9.46228 322.786 -9.12251C323.285 -8.78274 323.668 -8.30923 323.936 -7.70198C324.21 -7.09474 324.348 -6.3899 324.348 -5.58746V-5.56578C324.348 -4.76334 324.21 -4.05489 323.936 -3.44041C323.668 -2.83317 323.285 -2.35966 322.786 -2.01989C322.287 -1.68012 321.698 -1.51024 321.019 -1.51024ZM329.141 0.365723H331.027V-6.72605C331.027 -7.29715 331.139 -7.78873 331.364 -8.20079C331.595 -8.62008 331.913 -8.94178 332.318 -9.16588C332.73 -9.38999 333.203 -9.50204 333.738 -9.50204C333.955 -9.50204 334.154 -9.49119 334.335 -9.46951C334.523 -9.45505 334.682 -9.42975 334.812 -9.3936V-11.2262C334.732 -11.2406 334.613 -11.2551 334.454 -11.2696C334.302 -11.2912 334.14 -11.3021 333.966 -11.3021C333.265 -11.3021 332.665 -11.1214 332.166 -10.7599C331.674 -10.3984 331.327 -9.89964 331.125 -9.26348H331.027V-11.0961H329.141V0.365723ZM340.949 0.582597C341.593 0.582597 342.186 0.495847 342.728 0.322348C343.27 0.148849 343.743 -0.0897124 344.148 -0.393336C344.56 -0.696959 344.896 -1.04396 345.157 -1.43433C345.417 -1.8247 345.594 -2.23676 345.688 -2.67051L345.71 -2.77895H343.845L343.801 -2.68135C343.7 -2.39219 343.523 -2.12833 343.27 -1.88977C343.017 -1.6512 342.699 -1.45963 342.316 -1.31505C341.933 -1.17047 341.492 -1.09818 340.993 -1.09818C340.299 -1.09818 339.699 -1.24999 339.193 -1.55361C338.687 -1.86446 338.293 -2.30544 338.011 -2.87654C337.736 -3.45487 337.599 -4.14887 337.599 -4.95853V-5.6959C337.599 -6.54894 337.74 -7.26824 338.022 -7.8538C338.303 -8.43936 338.687 -8.88033 339.171 -9.17673C339.655 -9.48035 340.205 -9.63216 340.819 -9.63216C341.434 -9.63216 341.976 -9.48758 342.446 -9.19841C342.916 -8.91648 343.284 -8.48634 343.552 -7.90801C343.827 -7.32968 343.964 -6.59231 343.964 -5.6959V-4.95853L344.907 -6.32484H336.644V-4.83925H345.851V-5.55493C345.851 -6.69714 345.648 -7.69837 345.243 -8.55864C344.846 -9.42613 344.271 -10.0984 343.519 -10.5756C342.767 -11.0599 341.871 -11.3021 340.83 -11.3021C339.789 -11.3021 338.882 -11.0491 338.108 -10.543C337.342 -10.0442 336.746 -9.34661 336.319 -8.4502C335.893 -7.55379 335.679 -6.51279 335.679 -5.32722V-5.31637C335.679 -4.12357 335.889 -3.08257 336.308 -2.19339C336.735 -1.31144 337.342 -0.628282 338.13 -0.143931C338.918 0.340421 339.858 0.582597 340.949 0.582597ZM351.479 0.582597C351.992 0.582597 352.473 0.503076 352.921 0.344035C353.369 0.177765 353.77 -0.0535668 354.124 -0.349961C354.486 -0.653584 354.782 -1.01143 355.014 -1.42349H355.111V0.365723H356.998V-7.51764C356.998 -8.29839 356.821 -8.9707 356.467 -9.53457C356.12 -10.0984 355.617 -10.5322 354.959 -10.8358C354.309 -11.1467 353.524 -11.3021 352.606 -11.3021C351.753 -11.3021 351.001 -11.1611 350.351 -10.8792C349.707 -10.6045 349.191 -10.2213 348.8 -9.72975C348.417 -9.2454 348.189 -8.69599 348.117 -8.08151L348.106 -7.98392H349.95L349.971 -8.04898C350.101 -8.53333 350.387 -8.91648 350.828 -9.19841C351.276 -9.48758 351.858 -9.63216 352.574 -9.63216C353.398 -9.63216 354.027 -9.43698 354.461 -9.0466C354.894 -8.66346 355.111 -8.12127 355.111 -7.42005V-3.95007C355.111 -3.40065 354.97 -2.90546 354.688 -2.46448C354.406 -2.03073 354.023 -1.68735 353.539 -1.43433C353.055 -1.18131 352.505 -1.0548 351.891 -1.0548C351.211 -1.0548 350.658 -1.21746 350.232 -1.54277C349.805 -1.86808 349.592 -2.31267 349.592 -2.87654V-2.89823C349.592 -3.44764 349.798 -3.88139 350.21 -4.19947C350.622 -4.51755 351.233 -4.69828 352.042 -4.74166L356.055 -4.99106V-6.47665L351.826 -6.22724C350.503 -6.15495 349.476 -5.82603 348.746 -5.24047C348.023 -4.66214 347.662 -3.87416 347.662 -2.87654V-2.85485C347.662 -2.16086 347.824 -1.55361 348.15 -1.03311C348.475 -0.519846 348.927 -0.122243 349.505 0.159693C350.083 0.441629 350.741 0.582597 351.479 0.582597ZM363.754 0.528378C363.942 0.528378 364.126 0.517534 364.307 0.495847C364.487 0.47416 364.65 0.452472 364.795 0.430785V-1.13071C364.672 -1.11625 364.556 -1.1054 364.448 -1.09818C364.339 -1.09095 364.216 -1.08733 364.079 -1.08733C363.522 -1.08733 363.114 -1.21023 362.854 -1.45602C362.593 -1.70904 362.463 -2.15724 362.463 -2.80064V-9.53457H364.795V-11.0961H362.463V-14.1323H360.511V-11.0961H358.776V-9.53457H360.511V-2.58376C360.511 -1.48493 360.772 -0.68973 361.292 -0.198149C361.82 0.286202 362.64 0.528378 363.754 0.528378ZM376.766 0.582597C377.576 0.582597 378.288 0.394639 378.902 0.0187245C379.524 -0.35719 380.012 -0.870458 380.366 -1.52108H380.475V0.365723H382.361V-15.5853H380.475V-9.23095H380.366C380.034 -9.86711 379.546 -10.3695 378.902 -10.7382C378.266 -11.1141 377.547 -11.3021 376.744 -11.3021C375.783 -11.3021 374.941 -11.0563 374.218 -10.5647C373.495 -10.0804 372.931 -9.3936 372.526 -8.50442C372.121 -7.62246 371.919 -6.57786 371.919 -5.37059V-5.35975C371.919 -4.15971 372.118 -3.1151 372.515 -2.22592C372.92 -1.33674 373.484 -0.646355 374.207 -0.154775C374.937 0.336806 375.79 0.582597 376.766 0.582597ZM377.156 -1.08733C376.477 -1.08733 375.888 -1.25722 375.389 -1.59699C374.897 -1.94398 374.518 -2.43556 374.25 -3.07173C373.983 -3.71512 373.849 -4.47779 373.849 -5.35975V-5.37059C373.849 -6.25977 373.983 -7.01883 374.25 -7.64777C374.518 -8.28393 374.897 -8.7719 375.389 -9.11166C375.888 -9.45866 376.477 -9.63216 377.156 -9.63216C377.829 -9.63216 378.414 -9.45505 378.913 -9.10082C379.412 -8.75382 379.799 -8.26224 380.073 -7.62608C380.355 -6.98992 380.496 -6.23809 380.496 -5.37059V-5.35975C380.496 -4.49225 380.359 -3.73681 380.084 -3.09342C379.81 -2.45725 379.419 -1.96206 378.913 -1.60783C378.414 -1.26083 377.829 -1.08733 377.156 -1.08733ZM388.651 0.582597C389.164 0.582597 389.645 0.503076 390.093 0.344035C390.541 0.177765 390.942 -0.0535668 391.297 -0.349961C391.658 -0.653584 391.954 -1.01143 392.186 -1.42349H392.283V0.365723H394.17V-7.51764C394.17 -8.29839 393.993 -8.9707 393.639 -9.53457C393.292 -10.0984 392.789 -10.5322 392.132 -10.8358C391.481 -11.1467 390.697 -11.3021 389.778 -11.3021C388.925 -11.3021 388.174 -11.1611 387.523 -10.8792C386.88 -10.6045 386.363 -10.2213 385.972 -9.72975C385.589 -9.2454 385.361 -8.69599 385.289 -8.08151L385.278 -7.98392H387.122L387.143 -8.04898C387.274 -8.53333 387.559 -8.91648 388 -9.19841C388.448 -9.48758 389.03 -9.63216 389.746 -9.63216C390.57 -9.63216 391.199 -9.43698 391.633 -9.0466C392.067 -8.66346 392.283 -8.12127 392.283 -7.42005V-3.95007C392.283 -3.40065 392.142 -2.90546 391.86 -2.46448C391.579 -2.03073 391.195 -1.68735 390.711 -1.43433C390.227 -1.18131 389.677 -1.0548 389.063 -1.0548C388.383 -1.0548 387.83 -1.21746 387.404 -1.54277C386.977 -1.86808 386.764 -2.31267 386.764 -2.87654V-2.89823C386.764 -3.44764 386.97 -3.88139 387.382 -4.19947C387.794 -4.51755 388.405 -4.69828 389.215 -4.74166L393.227 -4.99106V-6.47665L388.998 -6.22724C387.675 -6.15495 386.648 -5.82603 385.918 -5.24047C385.195 -4.66214 384.834 -3.87416 384.834 -2.87654V-2.85485C384.834 -2.16086 384.996 -1.55361 385.322 -1.03311C385.647 -0.519846 386.099 -0.122243 386.677 0.159693C387.256 0.441629 387.913 0.582597 388.651 0.582597ZM397.89 4.29114C398.576 4.29114 399.155 4.18632 399.625 3.97667C400.094 3.77426 400.499 3.43449 400.839 2.95737C401.186 2.48747 401.504 1.85854 401.793 1.07056L406.272 -11.0961H404.287L400.882 -0.837927L401.435 -1.60783H400.72L401.284 -0.837927L397.868 -11.0961H395.851L400.102 0.376566L399.885 1.03803C399.668 1.68865 399.382 2.13324 399.028 2.37181C398.674 2.61037 398.211 2.72965 397.64 2.72965C397.517 2.72965 397.394 2.72242 397.271 2.70796C397.156 2.70073 397.051 2.68989 396.957 2.67543V4.21523C397.087 4.23692 397.235 4.25499 397.402 4.26945C397.575 4.28391 397.738 4.29114 397.89 4.29114ZM46.5539 28.5284C46.7419 28.5284 46.9262 28.5175 47.107 28.4958C47.2877 28.4742 47.4504 28.4525 47.5949 28.4308V26.8693C47.472 26.8838 47.3564 26.8946 47.2479 26.9018C47.1395 26.9091 47.0166 26.9127 46.8793 26.9127C46.3226 26.9127 45.9142 26.7898 45.6539 26.544C45.3937 26.291 45.2635 25.8428 45.2635 25.1994V18.4654H47.5949V16.9039H45.2635V13.8677H43.3117V16.9039H41.5767V18.4654H43.3117V25.4162C43.3117 26.5151 43.5719 27.3103 44.0924 27.8019C44.6202 28.2862 45.4407 28.5284 46.5539 28.5284ZM54.4482 28.5826C55.5181 28.5826 56.447 28.3404 57.235 27.8561C58.0302 27.3717 58.6447 26.6886 59.0784 25.8066C59.5194 24.9174 59.7399 23.862 59.7399 22.6403V22.6186C59.7399 21.3968 59.5194 20.345 59.0784 19.4631C58.6447 18.5739 58.0302 17.8907 57.235 17.4136C56.447 16.9365 55.5145 16.6979 54.4373 16.6979C53.3746 16.6979 52.4457 16.9365 51.6505 17.4136C50.8553 17.8907 50.2372 18.5739 49.7962 19.4631C49.3625 20.345 49.1456 21.3968 49.1456 22.6186V22.6403C49.1456 23.8547 49.3625 24.9066 49.7962 25.7958C50.2372 26.685 50.8553 27.3717 51.6505 27.8561C52.4457 28.3404 53.3782 28.5826 54.4482 28.5826ZM54.459 26.9127C53.7578 26.9127 53.1541 26.7428 52.6481 26.403C52.1493 26.0632 51.7625 25.5753 51.4878 24.9391C51.2131 24.303 51.0758 23.5367 51.0758 22.6403V22.6186C51.0758 21.7149 51.2131 20.9486 51.4878 20.3197C51.7625 19.6835 52.1493 19.1992 52.6481 18.8666C53.1541 18.5341 53.7505 18.3678 54.4373 18.3678C55.1385 18.3678 55.7386 18.5341 56.2374 18.8666C56.7434 19.1992 57.1302 19.6835 57.3976 20.3197C57.6723 20.9486 57.8097 21.7149 57.8097 22.6186V22.6403C57.8097 23.5367 57.6723 24.303 57.3976 24.9391C57.1302 25.5753 56.747 26.0632 56.2482 26.403C55.7494 26.7428 55.153 26.9127 54.459 26.9127ZM66.3762 28.5826C67.1859 28.5826 67.8979 28.3946 68.5124 28.0187C69.1341 27.6428 69.6221 27.1295 69.9763 26.4789H70.0848V28.3657H71.9716V12.4147H70.0848V18.7691H69.9763C69.6438 18.1329 69.1558 17.6305 68.5124 17.2618C67.8763 16.8859 67.157 16.6979 66.3545 16.6979C65.3931 16.6979 64.5509 16.9437 63.8279 17.4353C63.105 17.9196 62.5412 18.6064 62.1363 19.4956C61.7315 20.3775 61.5291 21.4221 61.5291 22.6294V22.6403C61.5291 23.8403 61.7279 24.8849 62.1255 25.7741C62.5303 26.6633 63.0942 27.3536 63.8171 27.8452C64.5472 28.3368 65.4003 28.5826 66.3762 28.5826ZM66.7666 26.9127C66.0871 26.9127 65.4979 26.7428 64.9991 26.403C64.5075 26.056 64.128 25.5644 63.8605 24.9283C63.593 24.2849 63.4593 23.5222 63.4593 22.6403V22.6294C63.4593 21.7402 63.593 20.9812 63.8605 20.3522C64.128 19.7161 64.5075 19.2281 64.9991 18.8883C65.4979 18.5413 66.0871 18.3678 66.7666 18.3678C67.4389 18.3678 68.0245 18.545 68.5233 18.8992C69.0221 19.2462 69.4088 19.7378 69.6835 20.3739C69.9655 21.0101 70.1064 21.7619 70.1064 22.6294V22.6403C70.1064 23.5077 69.9691 24.2632 69.6944 24.9066C69.4197 25.5427 69.0293 26.0379 68.5233 26.3922C68.0245 26.7392 67.4389 26.9127 66.7666 26.9127ZM78.2609 28.5826C78.7742 28.5826 79.2549 28.5031 79.7031 28.344C80.1513 28.1778 80.5525 27.9464 80.9068 27.65C81.2682 27.3464 81.5646 26.9886 81.7959 26.5765H81.8935V28.3657H83.7803V20.4824C83.7803 19.7016 83.6032 19.0293 83.249 18.4654C82.902 17.9016 82.3996 17.4678 81.7417 17.1642C81.0911 16.8533 80.3067 16.6979 79.3886 16.6979C78.5356 16.6979 77.7838 16.8389 77.1332 17.1208C76.4898 17.3955 75.9729 17.7787 75.5825 18.2702C75.1994 18.7546 74.9717 19.304 74.8994 19.9185L74.8885 20.0161H76.7319L76.7536 19.951C76.8838 19.4667 77.1693 19.0835 77.6103 18.8016C78.0585 18.5124 78.6404 18.3678 79.3561 18.3678C80.1802 18.3678 80.8092 18.563 81.2429 18.9534C81.6767 19.3365 81.8935 19.8787 81.8935 20.58V24.0499C81.8935 24.5993 81.7526 25.0945 81.4706 25.5355C81.1887 25.9693 80.8056 26.3127 80.3212 26.5657C79.8369 26.8187 79.2874 26.9452 78.673 26.9452C77.9934 26.9452 77.4404 26.7825 77.0139 26.4572C76.5874 26.1319 76.3741 25.6873 76.3741 25.1235V25.1018C76.3741 24.5524 76.5801 24.1186 76.9922 23.8005C77.4043 23.4824 78.0151 23.3017 78.8248 23.2583L82.8369 23.0089V21.5234L78.6079 21.7728C77.285 21.845 76.2584 22.174 75.5283 22.7595C74.8054 23.3379 74.4439 24.1258 74.4439 25.1235V25.1451C74.4439 25.8391 74.6066 26.4464 74.9319 26.9669C75.2572 27.4802 75.709 27.8778 76.2874 28.1597C76.8657 28.4416 77.5235 28.5826 78.2609 28.5826ZM87.4997 32.2911C88.1865 32.2911 88.7648 32.1863 89.2347 31.9767C89.7046 31.7743 90.1094 31.4345 90.4492 30.9574C90.7962 30.4875 91.1143 29.8585 91.4035 29.0706L95.8819 16.9039H93.8975L90.4926 27.1621L91.0456 26.3922H90.3299L90.8938 27.1621L87.478 16.9039H85.4611L89.7118 28.3766L89.495 29.038C89.2781 29.6887 88.9925 30.1332 88.6383 30.3718C88.2841 30.6104 87.8214 30.7296 87.2503 30.7296C87.1274 30.7296 87.0045 30.7224 86.8816 30.708C86.766 30.7007 86.6611 30.6899 86.5672 30.6754V32.2152C86.6973 32.2369 86.8455 32.255 87.0118 32.2695C87.1853 32.2839 87.3479 32.2911 87.4997 32.2911ZM95.5566 31.8357H96.9229L98.5603 26.1536H96.5108L95.5566 31.8357ZM106.574 28.3657H108.461V12.4147H106.574V28.3657ZM116.181 28.5826C116.825 28.5826 117.417 28.4958 117.96 28.3223C118.502 28.1488 118.975 27.9103 119.38 27.6067C119.792 27.303 120.128 26.956 120.389 26.5657C120.649 26.1753 120.826 25.7632 120.92 25.3295L120.942 25.2211H119.077L119.033 25.3186C118.932 25.6078 118.755 25.8717 118.502 26.1102C118.249 26.3488 117.931 26.5404 117.548 26.685C117.164 26.8295 116.723 26.9018 116.225 26.9018C115.531 26.9018 114.931 26.75 114.425 26.4464C113.919 26.1355 113.525 25.6946 113.243 25.1235C112.968 24.5451 112.831 23.8511 112.831 23.0415V22.3041C112.831 21.4511 112.972 20.7318 113.253 20.1462C113.535 19.5606 113.919 19.1197 114.403 18.8233C114.887 18.5197 115.437 18.3678 116.051 18.3678C116.666 18.3678 117.208 18.5124 117.678 18.8016C118.148 19.0835 118.516 19.5137 118.784 20.092C119.058 20.6703 119.196 21.4077 119.196 22.3041V23.0415L120.139 21.6752H111.876V23.1608H121.083V22.4451C121.083 21.3029 120.88 20.3016 120.475 19.4414C120.078 18.5739 119.503 17.9016 118.751 17.4244C117.999 16.9401 117.103 16.6979 116.062 16.6979C115.021 16.6979 114.114 16.9509 113.34 17.457C112.574 17.9558 111.978 18.6534 111.551 19.5498C111.125 20.4462 110.911 21.4872 110.911 22.6728V22.6836C110.911 23.8764 111.121 24.9174 111.54 25.8066C111.967 26.6886 112.574 27.3717 113.362 27.8561C114.15 28.3404 115.09 28.5826 116.181 28.5826ZM127.339 28.5284C127.527 28.5284 127.712 28.5175 127.892 28.4958C128.073 28.4742 128.236 28.4525 128.38 28.4308V26.8693C128.258 26.8838 128.142 26.8946 128.033 26.9018C127.925 26.9091 127.802 26.9127 127.665 26.9127C127.108 26.9127 126.7 26.7898 126.439 26.544C126.179 26.291 126.049 25.8428 126.049 25.1994V18.4654H128.38V16.9039H126.049V13.8677H124.097V16.9039H122.362V18.4654H124.097V25.4162C124.097 26.5151 124.357 27.3103 124.878 27.8019C125.406 28.2862 126.226 28.5284 127.339 28.5284ZM130.593 18.4004H131.959L133.596 12.7183H131.536L130.593 18.4004ZM138.801 28.5826C139.662 28.5826 140.431 28.438 141.111 28.1488C141.798 27.8525 142.336 27.4476 142.727 26.9344C143.124 26.4139 143.323 25.8175 143.323 25.1451V25.1235C143.323 24.3066 143.074 23.6559 142.575 23.1716C142.076 22.68 141.266 22.2969 140.146 22.0222L138.346 21.5884C137.695 21.4366 137.225 21.227 136.936 20.9595C136.647 20.692 136.502 20.3667 136.502 19.9835V19.9619C136.502 19.6221 136.596 19.3257 136.784 19.0727C136.979 18.8197 137.251 18.6245 137.598 18.4871C137.945 18.3425 138.346 18.2702 138.801 18.2702C139.502 18.2702 140.063 18.4257 140.482 18.7365C140.909 19.0474 141.172 19.4594 141.274 19.9727V20.0161H143.095V19.9402C143.03 19.304 142.813 18.7438 142.445 18.2594C142.083 17.7678 141.592 17.3847 140.97 17.11C140.348 16.8353 139.625 16.6979 138.801 16.6979C137.992 16.6979 137.265 16.8425 136.622 17.1317C135.985 17.4136 135.483 17.8076 135.114 18.3136C134.753 18.8197 134.572 19.398 134.572 20.0486V20.0595C134.572 20.8836 134.829 21.5487 135.342 22.0547C135.863 22.5607 136.661 22.9403 137.739 23.1933L139.539 23.627C140.218 23.7933 140.695 24.0066 140.97 24.2668C141.252 24.5271 141.393 24.8596 141.393 25.2644V25.2753C141.393 25.6223 141.284 25.9259 141.068 26.1861C140.858 26.4464 140.562 26.6488 140.178 26.7934C139.802 26.938 139.354 27.0103 138.834 27.0103C138.082 27.0103 137.482 26.8584 137.034 26.5548C136.593 26.244 136.307 25.8247 136.177 25.297L136.155 25.2319H134.258V25.2861C134.337 25.944 134.569 26.5223 134.952 27.0211C135.335 27.5127 135.852 27.8958 136.502 28.1705C137.16 28.4452 137.927 28.5826 138.801 28.5826ZM155.804 32.4213C156.845 32.4213 157.745 32.2441 158.504 31.8899C159.271 31.5357 159.86 31.0369 160.272 30.3935C160.684 29.7501 160.89 28.991 160.89 28.1163V16.9039H159.003V18.8233H158.916C158.685 18.3968 158.392 18.0245 158.038 17.7064C157.684 17.3883 157.279 17.1425 156.823 16.969C156.368 16.7883 155.869 16.6979 155.327 16.6979C154.344 16.6979 153.487 16.9401 152.757 17.4244C152.027 17.9016 151.459 18.5703 151.055 19.4305C150.65 20.2836 150.447 21.2776 150.447 22.4125V22.4342C150.447 23.5692 150.646 24.5668 151.044 25.4271C151.449 26.2873 152.012 26.9597 152.735 27.444C153.466 27.9211 154.315 28.1597 155.284 28.1597C155.826 28.1597 156.325 28.0802 156.78 27.9211C157.243 27.7549 157.655 27.5199 158.016 27.2163C158.378 26.9127 158.674 26.5476 158.905 26.1211H159.014V27.9753C159.014 28.8428 158.732 29.5224 158.168 30.014C157.604 30.5055 156.813 30.7513 155.793 30.7513C154.998 30.7513 154.344 30.6212 153.831 30.361C153.317 30.1079 152.988 29.7718 152.844 29.3525L152.811 29.2983H150.892V29.3525C151.008 29.9453 151.275 30.473 151.694 30.9357C152.114 31.3983 152.67 31.7598 153.364 32.02C154.066 32.2875 154.879 32.4213 155.804 32.4213ZM155.696 26.4898C155.009 26.4898 154.416 26.3235 153.917 25.991C153.419 25.6512 153.035 25.1777 152.768 24.5704C152.508 23.9632 152.378 23.2511 152.378 22.4342V22.4125C152.378 21.6029 152.508 20.8944 152.768 20.2872C153.035 19.6799 153.419 19.21 153.917 18.8775C154.416 18.5377 155.009 18.3678 155.696 18.3678C156.375 18.3678 156.964 18.5377 157.463 18.8775C157.962 19.2173 158.345 19.6908 158.613 20.298C158.887 20.9053 159.025 21.6101 159.025 22.4125V22.4342C159.025 23.2367 158.887 23.9451 158.613 24.5596C158.345 25.1668 157.962 25.6403 157.463 25.9801C156.964 26.3199 156.375 26.4898 155.696 26.4898ZM168.513 28.5826C169.156 28.5826 169.749 28.4958 170.291 28.3223C170.834 28.1488 171.307 27.9103 171.712 27.6067C172.124 27.303 172.46 26.956 172.72 26.5657C172.981 26.1753 173.158 25.7632 173.252 25.3295L173.273 25.2211H171.408L171.365 25.3186C171.264 25.6078 171.087 25.8717 170.834 26.1102C170.58 26.3488 170.262 26.5404 169.879 26.685C169.496 26.8295 169.055 26.9018 168.556 26.9018C167.862 26.9018 167.262 26.75 166.756 26.4464C166.25 26.1355 165.856 25.6946 165.574 25.1235C165.3 24.5451 165.162 23.8511 165.162 23.0415V22.3041C165.162 21.4511 165.303 20.7318 165.585 20.1462C165.867 19.5606 166.25 19.1197 166.735 18.8233C167.219 18.5197 167.768 18.3678 168.383 18.3678C168.997 18.3678 169.539 18.5124 170.009 18.8016C170.479 19.0835 170.848 19.5137 171.115 20.092C171.39 20.6703 171.528 21.4077 171.528 22.3041V23.0415L172.471 21.6752H164.208V23.1608H173.414V22.4451C173.414 21.3029 173.212 20.3016 172.807 19.4414C172.409 18.5739 171.835 17.9016 171.083 17.4244C170.331 16.9401 169.435 16.6979 168.394 16.6979C167.353 16.6979 166.445 16.9509 165.672 17.457C164.906 17.9558 164.309 18.6534 163.883 19.5498C163.456 20.4462 163.243 21.4872 163.243 22.6728V22.6836C163.243 23.8764 163.453 24.9174 163.872 25.8066C164.298 26.6886 164.906 27.3717 165.694 27.8561C166.482 28.3404 167.421 28.5826 168.513 28.5826ZM179.671 28.5284C179.859 28.5284 180.043 28.5175 180.224 28.4958C180.405 28.4742 180.568 28.4525 180.712 28.4308V26.8693C180.589 26.8838 180.474 26.8946 180.365 26.9018C180.257 26.9091 180.134 26.9127 179.996 26.9127C179.44 26.9127 179.031 26.7898 178.771 26.544C178.511 26.291 178.381 25.8428 178.381 25.1994V18.4654H180.712V16.9039H178.381V13.8677H176.429V16.9039H174.694V18.4654H176.429V25.4162C176.429 26.5151 176.689 27.3103 177.21 27.8019C177.737 28.2862 178.558 28.5284 179.671 28.5284ZM189.452 32.2911C190.139 32.2911 190.717 32.1863 191.187 31.9767C191.657 31.7743 192.062 31.4345 192.402 30.9574C192.749 30.4875 193.067 29.8585 193.356 29.0706L197.834 16.9039H195.85L192.445 27.1621L192.998 26.3922H192.282L192.846 27.1621L189.43 16.9039H187.414L191.664 28.3766L191.447 29.038C191.23 29.6887 190.945 30.1332 190.591 30.3718C190.236 30.6104 189.774 30.7296 189.203 30.7296C189.08 30.7296 188.957 30.7224 188.834 30.708C188.718 30.7007 188.614 30.6899 188.52 30.6754V32.2152C188.65 32.2369 188.798 32.255 188.964 32.2695C189.138 32.2839 189.3 32.2911 189.452 32.2911ZM204.069 28.5826C205.139 28.5826 206.068 28.3404 206.856 27.8561C207.651 27.3717 208.266 26.6886 208.7 25.8066C209.141 24.9174 209.361 23.862 209.361 22.6403V22.6186C209.361 21.3968 209.141 20.345 208.7 19.4631C208.266 18.5739 207.651 17.8907 206.856 17.4136C206.068 16.9365 205.136 16.6979 204.059 16.6979C202.996 16.6979 202.067 16.9365 201.272 17.4136C200.477 17.8907 199.858 18.5739 199.417 19.4631C198.984 20.345 198.767 21.3968 198.767 22.6186V22.6403C198.767 23.8547 198.984 24.9066 199.417 25.7958C199.858 26.685 200.477 27.3717 201.272 27.8561C202.067 28.3404 203 28.5826 204.069 28.5826ZM204.08 26.9127C203.379 26.9127 202.775 26.7428 202.269 26.403C201.771 26.0632 201.384 25.5753 201.109 24.9391C200.834 24.303 200.697 23.5367 200.697 22.6403V22.6186C200.697 21.7149 200.834 20.9486 201.109 20.3197C201.384 19.6835 201.771 19.1992 202.269 18.8666C202.775 18.5341 203.372 18.3678 204.059 18.3678C204.76 18.3678 205.36 18.5341 205.859 18.8666C206.365 19.1992 206.751 19.6835 207.019 20.3197C207.294 20.9486 207.431 21.7149 207.431 22.6186V22.6403C207.431 23.5367 207.294 24.303 207.019 24.9391C206.751 25.5753 206.368 26.0632 205.869 26.403C205.371 26.7428 204.774 26.9127 204.08 26.9127ZM215.596 28.5826C216.457 28.5826 217.176 28.4127 217.754 28.0729C218.332 27.7259 218.77 27.2669 219.066 26.6958H219.175V28.3657H221.061V16.9039H219.175V23.6704C219.175 24.321 219.052 24.8921 218.806 25.3837C218.567 25.8681 218.22 26.244 217.765 26.5115C217.317 26.7789 216.775 26.9127 216.138 26.9127C215.242 26.9127 214.581 26.6633 214.154 26.1645C213.735 25.6584 213.525 24.9174 213.525 23.9415V16.9039H211.638V24.3319C211.638 25.2138 211.79 25.9729 212.094 26.609C212.405 27.2452 212.853 27.7332 213.438 28.0729C214.031 28.4127 214.75 28.5826 215.596 28.5826ZM233.564 28.5826C234.374 28.5826 235.086 28.3946 235.7 28.0187C236.322 27.6428 236.81 27.1295 237.164 26.4789H237.273V28.3657H239.16V12.4147H237.273V18.7691H237.164C236.832 18.1329 236.344 17.6305 235.7 17.2618C235.064 16.8859 234.345 16.6979 233.543 16.6979C232.581 16.6979 231.739 16.9437 231.016 17.4353C230.293 17.9196 229.729 18.6064 229.324 19.4956C228.92 20.3775 228.717 21.4221 228.717 22.6294V22.6403C228.717 23.8403 228.916 24.8849 229.314 25.7741C229.718 26.6633 230.282 27.3536 231.005 27.8452C231.735 28.3368 232.588 28.5826 233.564 28.5826ZM233.955 26.9127C233.275 26.9127 232.686 26.7428 232.187 26.403C231.696 26.056 231.316 25.5644 231.049 24.9283C230.781 24.2849 230.647 23.5222 230.647 22.6403V22.6294C230.647 21.7402 230.781 20.9812 231.049 20.3522C231.316 19.7161 231.696 19.2281 232.187 18.8883C232.686 18.5413 233.275 18.3678 233.955 18.3678C234.627 18.3678 235.213 18.545 235.711 18.8992C236.21 19.2462 236.597 19.7378 236.872 20.3739C237.154 21.0101 237.295 21.7619 237.295 22.6294V22.6403C237.295 23.5077 237.157 24.2632 236.882 24.9066C236.608 25.5427 236.217 26.0379 235.711 26.3922C235.213 26.7392 234.627 26.9127 233.955 26.9127ZM242.196 28.3657H244.083V21.2739C244.083 20.7028 244.195 20.2113 244.419 19.7992C244.65 19.3799 244.968 19.0582 245.373 18.8341C245.785 18.61 246.259 18.498 246.794 18.498C247.01 18.498 247.209 18.5088 247.39 18.5305C247.578 18.545 247.737 18.5703 247.867 18.6064V16.7738C247.788 16.7594 247.668 16.7449 247.509 16.7304C247.357 16.7088 247.195 16.6979 247.021 16.6979C246.32 16.6979 245.72 16.8786 245.221 17.2401C244.73 17.6016 244.383 18.1004 244.18 18.7365H244.083V16.9039H242.196V28.3657ZM254.005 28.5826C254.648 28.5826 255.241 28.4958 255.783 28.3223C256.325 28.1488 256.799 27.9103 257.204 27.6067C257.616 27.303 257.952 26.956 258.212 26.5657C258.472 26.1753 258.649 25.7632 258.743 25.3295L258.765 25.2211H256.9L256.857 25.3186C256.755 25.6078 256.578 25.8717 256.325 26.1102C256.072 26.3488 255.754 26.5404 255.371 26.685C254.988 26.8295 254.547 26.9018 254.048 26.9018C253.354 26.9018 252.754 26.75 252.248 26.4464C251.742 26.1355 251.348 25.6946 251.066 25.1235C250.791 24.5451 250.654 23.8511 250.654 23.0415V22.3041C250.654 21.4511 250.795 20.7318 251.077 20.1462C251.359 19.5606 251.742 19.1197 252.226 18.8233C252.711 18.5197 253.26 18.3678 253.875 18.3678C254.489 18.3678 255.031 18.5124 255.501 18.8016C255.971 19.0835 256.34 19.5137 256.607 20.092C256.882 20.6703 257.019 21.4077 257.019 22.3041V23.0415L257.963 21.6752H249.7V23.1608H258.906V22.4451C258.906 21.3029 258.704 20.3016 258.299 19.4414C257.901 18.5739 257.326 17.9016 256.575 17.4244C255.823 16.9401 254.926 16.6979 253.885 16.6979C252.844 16.6979 251.937 16.9509 251.164 17.457C250.397 17.9558 249.801 18.6534 249.374 19.5498C248.948 20.4462 248.735 21.4872 248.735 22.6728V22.6836C248.735 23.8764 248.944 24.9174 249.364 25.8066C249.79 26.6886 250.397 27.3717 251.185 27.8561C251.973 28.3404 252.913 28.5826 254.005 28.5826ZM265.282 28.5826C266.142 28.5826 266.912 28.438 267.592 28.1488C268.279 27.8525 268.817 27.4476 269.207 26.9344C269.605 26.4139 269.804 25.8175 269.804 25.1451V25.1235C269.804 24.3066 269.554 23.6559 269.056 23.1716C268.557 22.68 267.747 22.2969 266.627 22.0222L264.827 21.5884C264.176 21.4366 263.706 21.227 263.417 20.9595C263.128 20.692 262.983 20.3667 262.983 19.9835V19.9619C262.983 19.6221 263.077 19.3257 263.265 19.0727C263.46 18.8197 263.731 18.6245 264.078 18.4871C264.425 18.3425 264.827 18.2702 265.282 18.2702C265.983 18.2702 266.544 18.4257 266.963 18.7365C267.389 19.0474 267.653 19.4594 267.754 19.9727V20.0161H269.576V19.9402C269.511 19.304 269.294 18.7438 268.926 18.2594C268.564 17.7678 268.073 17.3847 267.451 17.11C266.829 16.8353 266.106 16.6979 265.282 16.6979C264.472 16.6979 263.746 16.8425 263.102 17.1317C262.466 17.4136 261.964 17.8076 261.595 18.3136C261.234 18.8197 261.053 19.398 261.053 20.0486V20.0595C261.053 20.8836 261.31 21.5487 261.823 22.0547C262.343 22.5607 263.142 22.9403 264.219 23.1933L266.019 23.627C266.699 23.7933 267.176 24.0066 267.451 24.2668C267.733 24.5271 267.874 24.8596 267.874 25.2644V25.2753C267.874 25.6223 267.765 25.9259 267.548 26.1861C267.339 26.4464 267.042 26.6488 266.659 26.7934C266.283 26.938 265.835 27.0103 265.315 27.0103C264.563 27.0103 263.963 26.8584 263.515 26.5548C263.074 26.244 262.788 25.8247 262.658 25.297L262.636 25.2319H260.739V25.2861C260.818 25.944 261.049 26.5223 261.433 27.0211C261.816 27.5127 262.333 27.8958 262.983 28.1705C263.641 28.4452 264.407 28.5826 265.282 28.5826ZM276.104 28.5826C276.964 28.5826 277.734 28.438 278.414 28.1488C279.101 27.8525 279.639 27.4476 280.029 26.9344C280.427 26.4139 280.626 25.8175 280.626 25.1451V25.1235C280.626 24.3066 280.376 23.6559 279.878 23.1716C279.379 22.68 278.569 22.2969 277.449 22.0222L275.649 21.5884C274.998 21.4366 274.528 21.227 274.239 20.9595C273.95 20.692 273.805 20.3667 273.805 19.9835V19.9619C273.805 19.6221 273.899 19.3257 274.087 19.0727C274.282 18.8197 274.553 18.6245 274.9 18.4871C275.247 18.3425 275.649 18.2702 276.104 18.2702C276.805 18.2702 277.366 18.4257 277.785 18.7365C278.211 19.0474 278.475 19.4594 278.576 19.9727V20.0161H280.398V19.9402C280.333 19.304 280.116 18.7438 279.748 18.2594C279.386 17.7678 278.895 17.3847 278.273 17.11C277.651 16.8353 276.928 16.6979 276.104 16.6979C275.294 16.6979 274.568 16.8425 273.924 17.1317C273.288 17.4136 272.786 17.8076 272.417 18.3136C272.056 18.8197 271.875 19.398 271.875 20.0486V20.0595C271.875 20.8836 272.132 21.5487 272.645 22.0547C273.165 22.5607 273.964 22.9403 275.041 23.1933L276.841 23.627C277.521 23.7933 277.998 24.0066 278.273 24.2668C278.555 24.5271 278.696 24.8596 278.696 25.2644V25.2753C278.696 25.6223 278.587 25.9259 278.37 26.1861C278.161 26.4464 277.864 26.6488 277.481 26.7934C277.105 26.938 276.657 27.0103 276.137 27.0103C275.385 27.0103 274.785 26.8584 274.337 26.5548C273.896 26.244 273.61 25.8247 273.48 25.297L273.458 25.2319H271.561V25.2861C271.64 25.944 271.871 26.5223 272.255 27.0211C272.638 27.5127 273.155 27.8958 273.805 28.1705C274.463 28.4452 275.229 28.5826 276.104 28.5826ZM287.707 28.5826C288.35 28.5826 288.943 28.4958 289.485 28.3223C290.027 28.1488 290.501 27.9103 290.906 27.6067C291.318 27.303 291.654 26.956 291.914 26.5657C292.174 26.1753 292.352 25.7632 292.446 25.3295L292.467 25.2211H290.602L290.559 25.3186C290.458 25.6078 290.28 25.8717 290.027 26.1102C289.774 26.3488 289.456 26.5404 289.073 26.685C288.69 26.8295 288.249 26.9018 287.75 26.9018C287.056 26.9018 286.456 26.75 285.95 26.4464C285.444 26.1355 285.05 25.6946 284.768 25.1235C284.493 24.5451 284.356 23.8511 284.356 23.0415V22.3041C284.356 21.4511 284.497 20.7318 284.779 20.1462C285.061 19.5606 285.444 19.1197 285.928 18.8233C286.413 18.5197 286.962 18.3678 287.577 18.3678C288.191 18.3678 288.733 18.5124 289.203 18.8016C289.673 19.0835 290.042 19.5137 290.309 20.092C290.584 20.6703 290.721 21.4077 290.721 22.3041V23.0415L291.665 21.6752H283.402V23.1608H292.608V22.4451C292.608 21.3029 292.406 20.3016 292.001 19.4414C291.603 18.5739 291.029 17.9016 290.277 17.4244C289.525 16.9401 288.629 16.6979 287.588 16.6979C286.547 16.6979 285.639 16.9509 284.866 17.457C284.099 17.9558 283.503 18.6534 283.077 19.5498C282.65 20.4462 282.437 21.4872 282.437 22.6728V22.6836C282.437 23.8764 282.646 24.9174 283.066 25.8066C283.492 26.6886 284.099 27.3717 284.887 27.8561C285.675 28.3404 286.615 28.5826 287.707 28.5826ZM299.255 28.5826C300.065 28.5826 300.777 28.3946 301.392 28.0187C302.013 27.6428 302.501 27.1295 302.855 26.4789H302.964V28.3657H304.851V12.4147H302.964V18.7691H302.855C302.523 18.1329 302.035 17.6305 301.392 17.2618C300.755 16.8859 300.036 16.6979 299.234 16.6979C298.272 16.6979 297.43 16.9437 296.707 17.4353C295.984 17.9196 295.42 18.6064 295.015 19.4956C294.611 20.3775 294.408 21.4221 294.408 22.6294V22.6403C294.408 23.8403 294.607 24.8849 295.005 25.7741C295.409 26.6633 295.973 27.3536 296.696 27.8452C297.426 28.3368 298.279 28.5826 299.255 28.5826ZM299.646 26.9127C298.966 26.9127 298.377 26.7428 297.878 26.403C297.387 26.056 297.007 25.5644 296.74 24.9283C296.472 24.2849 296.338 23.5222 296.338 22.6403V22.6294C296.338 21.7402 296.472 20.9812 296.74 20.3522C297.007 19.7161 297.387 19.2281 297.878 18.8883C298.377 18.5413 298.966 18.3678 299.646 18.3678C300.318 18.3678 300.904 18.545 301.402 18.8992C301.901 19.2462 302.288 19.7378 302.563 20.3739C302.845 21.0101 302.986 21.7619 302.986 22.6294V22.6403C302.986 23.5077 302.848 24.2632 302.574 24.9066C302.299 25.5427 301.908 26.0379 301.402 26.3922C300.904 26.7392 300.318 26.9127 299.646 26.9127ZM309.21 28.4958C309.579 28.4958 309.889 28.3693 310.142 28.1163C310.395 27.8561 310.522 27.5452 310.522 27.1838C310.522 26.8151 310.395 26.5042 310.142 26.2512C309.889 25.9982 309.579 25.8717 309.21 25.8717C308.848 25.8717 308.538 25.9982 308.277 26.2512C308.024 26.5042 307.898 26.8151 307.898 27.1838C307.898 27.5452 308.024 27.8561 308.277 28.1163C308.538 28.3693 308.848 28.4958 309.21 28.4958Z" fill="#141414"/>
<line x1="41.208" y1="56.3988" x2="518.677" y2="56.3988" stroke="#141414" stroke-opacity="0.1" stroke-width="1.38799"/>
<line x1="19" y1="155.64" x2="539.497" y2="155.64" stroke="#CCCCC4" stroke-opacity="0.2" stroke-width="13.8799"/>
<g clip-path="url(#clip0_1199_7063)">
<path d="M57.8646 86.2405V89.0165M57.8646 114V116.776M47.066 90.7098L49.037 92.6808M66.6922 110.336L68.6632 112.307M42.5967 101.508H45.3727M70.3565 101.508H73.1325M47.066 112.307L49.037 110.336M66.6922 92.6808L68.6632 90.7098M64.8046 101.508C64.8046 105.341 61.6974 108.448 57.8646 108.448C54.0318 108.448 50.9246 105.341 50.9246 101.508C50.9246 97.6756 54.0318 94.5684 57.8646 94.5684C61.6974 94.5684 64.8046 97.6756 64.8046 101.508Z" stroke="#141414" stroke-width="2.77599" stroke-linecap="round" stroke-linejoin="round"/>
</g>
</g>
<defs>
<clipPath id="clip0_1199_7063">
<rect width="33.3118" height="33.3118" fill="white" transform="translate(41.209 84.8525)"/>
</clipPath>
</defs>
</svg>
