<svg width="296" height="305" viewBox="0 0 296 305" fill="none" xmlns="http://www.w3.org/2000/svg">
<g clip-path="url(#clip0_1197_6179)">
<path d="M23.5085 202.234C17.2132 186.709 13.7329 169.717 13.7329 151.923C13.7329 144.365 14.3641 136.961 15.5583 129.744L13.8694 129.471C12.6581 136.773 12.0098 144.28 12.0098 151.923C12.0098 169.938 15.5242 187.135 21.9048 202.865L23.4914 202.217L23.5085 202.234Z" fill="#ECB9D3"/>
<path d="M26.8344 115.31L27.9354 112.443L13.5945 101.818C12.4035 100.922 10.4529 99.6249 10.4529 99.6249L10.4774 99.5612C10.4774 99.5612 12.795 99.903 14.2673 100.066L31.9235 102.059L32.9756 99.3201L12.6356 84.2346L11.5223 87.1332L24.8779 96.6121C26.1449 97.5008 28.3895 98.9842 28.3895 98.9842L28.3651 99.048C28.3651 99.048 25.7804 98.6401 24.0924 98.467L7.81561 96.7845L6.62898 99.8741L19.7985 109.647C21.1366 110.636 23.3494 112.107 23.3494 112.107L23.3249 112.171C23.3249 112.171 20.8162 111.756 19.1405 111.551L2.94673 109.462L1.7968 112.456L26.8344 115.31Z" fill="#ECB9D3"/>
<path d="M17.0415 77.5284L15.5974 79.8849L36.3987 92.632L37.8428 90.2755L28.5913 84.6062C26.1184 83.0908 25.5007 80.3112 26.9626 77.9256C28.2641 75.8018 30.154 75.1992 32.1032 76.3937L42.4603 82.7405L43.9043 80.384L33.3437 73.9124C30.2307 72.0048 27.3376 72.873 25.4122 76.015C24.0751 78.197 24.0499 80.2625 24.8158 82.2125L24.7801 82.2707L17.0415 77.5284Z" fill="#ECB9D3"/>
<path d="M54.2149 67.7065C54.6659 67.1496 54.8389 66.719 54.9476 66.368L53.3831 65.1011L53.3187 65.1806C52.6176 66.5886 51.793 66.3599 50.6792 65.458L44.1561 60.1757C40.8945 57.5345 38.068 58.802 35.706 61.7188C32.7642 65.3516 33.3358 68.7122 35.923 70.9391L37.5979 68.8708C35.594 67.1163 35.5413 65.2296 37.345 63.0022C38.934 61.0399 40.7109 60.6348 42.2489 61.8802C43.7338 63.0827 42.8243 64.5854 41.5485 66.7573C39.3088 70.6075 37.9104 73.6899 41.1454 76.3096C43.7441 78.414 46.6173 77.3599 48.7216 74.7613C50.6112 72.4278 50.6356 70.1205 50.2406 68.4396L50.262 68.4131C51.8392 69.339 53.0769 69.1119 54.2149 67.7065ZM47.4641 72.9526C46.326 74.358 44.7687 75.4678 42.9391 73.9862C40.9238 72.3543 41.9483 70.3301 43.2898 67.8601C44.0225 66.5216 44.687 64.9961 44.816 63.9151L47.1495 65.8048C48.7405 67.0931 49.7831 70.0888 47.4641 72.9526Z" fill="#ECB9D3"/>
<path d="M44.0549 55.9595L45.8562 54.1418L54.4358 62.6439C56.2051 64.3972 58.0123 63.8823 59.5974 62.2827C60.1738 61.701 60.6295 61.0958 60.9889 60.5392L59.2924 58.858L59.2203 58.9307C59.0769 59.2209 58.7415 59.7532 58.3572 60.141C57.5646 60.9408 56.8175 61.1131 55.945 60.2485L47.8016 52.1786L50.2033 49.755L48.6037 48.1699L46.202 50.5935L42.2515 46.6787L40.3061 48.6418L44.2566 52.5566L42.4553 54.3744L44.0549 55.9595Z" fill="#ECB9D3"/>
<path d="M72.5456 51.716C76.781 48.5487 76.8565 43.2942 73.7914 39.1954C70.7262 35.0966 65.6647 33.6838 61.4293 36.8511C57.2212 39.998 57.091 45.2934 60.1561 49.3922C63.2213 53.491 68.3375 54.8629 72.5456 51.716ZM71.156 49.8579C68.1503 52.1057 64.7536 50.8112 62.4241 47.6961C60.0946 44.5811 59.7926 40.9297 62.7984 38.6819C65.8041 36.4341 69.1939 37.7764 71.5234 40.8915C73.8529 44.0065 74.1618 47.6101 71.156 49.8579Z" fill="#ECB9D3"/>
<path d="M71.5741 33.0119L73.7736 31.7038L79.9476 42.0855C81.2208 44.2263 83.0993 44.181 85.0349 43.0299C85.7388 42.6113 86.3316 42.1397 86.8191 41.691L85.5982 39.6381L85.5102 39.6904C85.2986 39.9354 84.8405 40.3666 84.3713 40.6457C83.4035 41.2212 82.637 41.2007 82.0091 40.1449L76.1491 30.2911L79.0818 28.5471L77.9307 26.6115L74.998 28.3556L72.1552 23.5753L69.7797 24.988L72.6225 29.7683L70.423 31.0763L71.5741 33.0119Z" fill="#ECB9D3"/>
<path d="M80.8958 17.4163L78.3844 18.5703L88.5711 40.7382L91.0825 39.5842L86.5519 29.7249C85.3409 27.0896 86.3748 24.4365 88.9171 23.2682C91.1804 22.2282 93.086 22.7795 94.0405 24.8567L99.1125 35.8942L101.624 34.7401L96.4521 23.4857C94.9277 20.1683 92.0408 19.2793 88.6924 20.818C86.3671 21.8866 85.1965 23.5885 84.7475 25.6349L84.6855 25.6634L80.8958 17.4163Z" fill="#ECB9D3"/>
<path d="M111.266 32.1409C115.085 30.9777 117.103 28.1161 116.783 24.2544L114.204 25.0398C114.312 27.5036 113.038 29.1757 110.59 29.9214C107.196 30.9553 104.54 28.9108 103.3 25.5432L116.356 21.5665C114.656 15.985 110.754 12.8933 105.695 14.4343C100.897 15.8957 98.9108 20.8521 100.402 25.7482C101.893 30.6442 106.109 33.7117 111.266 32.1409ZM106.331 16.5233C109.367 15.5987 111.723 17.1281 112.91 20.4403L102.759 23.5322C102.216 20.3447 103.198 17.4777 106.331 16.5233Z" fill="#ECB9D3"/>
<path d="M119.928 11.3427L117.211 11.8487L120.441 29.191L123.158 28.6849L121.365 19.0578C120.759 15.804 122.732 13.3541 125.416 12.8543C125.952 12.7543 126.227 12.7379 126.654 12.7971L126.755 12.7784L126.268 10.1619C125.907 10.0902 125.626 10.0731 125.123 10.1668C122.809 10.5979 121.26 12.3441 120.532 14.215L120.465 14.2274L119.928 11.3427Z" fill="#ECB9D3"/>
<path d="M137.765 27.2161C141.812 26.8905 144.558 24.8553 144.274 21.3182C143.948 17.2709 140.926 16.7267 137.332 16.2971C134.255 15.9284 132.525 15.6911 132.371 13.7865C132.259 12.3921 133.189 11.1876 135.706 10.9851C138.325 10.7744 139.665 11.6935 140.124 13.9843L142.947 13.7572C142.262 10.3549 139.952 8.45267 135.599 8.80294C131.518 9.13131 129.426 11.2165 129.662 14.1415C129.971 17.9847 133.123 18.4499 136.65 18.885C139.936 19.3053 141.337 19.706 141.496 21.6786C141.627 23.3111 140.538 24.6653 137.647 24.8979C135.028 25.1086 132.919 24.4225 132.299 21.3917L129.476 21.6188C130.065 25.5422 132.936 27.6047 137.765 27.2161Z" fill="#ECB9D3"/>
<path d="M165.096 27.5157C165.81 27.5749 166.264 27.4755 166.615 27.3677L166.781 25.3615L166.679 25.353C165.121 25.5662 164.846 24.7559 164.964 23.3277L165.658 14.9627C166.005 10.7802 163.366 9.15762 159.625 8.84746C154.967 8.46119 152.511 10.8254 152.127 14.2174L154.779 14.4373C155.101 11.7934 156.631 10.6877 159.487 10.9245C162.004 11.1332 163.339 12.3737 163.175 14.346C163.017 16.2502 161.263 16.3444 158.75 16.5127C154.307 16.829 150.972 17.4084 150.628 21.557C150.352 24.8894 152.841 26.6706 156.173 26.947C159.165 27.1951 161.086 25.9163 162.253 24.6436L162.287 24.6464C162.41 26.4712 163.294 27.3662 165.096 27.5157ZM156.96 24.8895C155.158 24.74 153.364 24.0777 153.558 21.7314C153.773 19.1471 156.022 18.8543 158.819 18.5726C160.338 18.4247 161.973 18.1151 162.939 17.6132L162.691 20.6056C162.521 22.6458 160.632 25.194 156.96 24.8895Z" fill="#ECB9D3"/>
<path d="M173.642 11.0616L170.928 10.5394L167.596 27.8622L170.31 28.3844L172.16 18.768C172.785 15.5179 175.517 13.9588 178.198 14.4745C178.734 14.5776 178.995 14.6627 179.372 14.8741L179.472 14.8934L179.975 12.2799C179.666 12.0814 179.411 11.9628 178.908 11.8661C176.596 11.4213 174.516 12.4805 173.155 13.956L173.088 13.9431L173.642 11.0616Z" fill="#ECB9D3"/>
<path d="M184.58 32.3654C188.398 33.532 191.669 32.2838 193.559 28.9009L190.981 28.1133C189.696 30.218 187.705 30.8942 185.258 30.1465C181.864 29.1096 180.802 25.9307 181.653 22.4446L194.706 26.4327C196.41 20.8527 194.898 16.1094 189.841 14.564C185.044 13.0983 180.629 16.1023 179.134 20.9971C177.638 25.8918 179.424 30.7901 184.58 32.3654ZM189.202 16.6524C192.237 17.5796 193.339 20.1638 192.475 23.5748L182.326 20.474C183.655 17.5263 186.07 15.6952 189.202 16.6524Z" fill="#ECB9D3"/>
<path d="M204.166 40.3115C207.794 42.1353 211.197 41.8223 212.791 38.6518C214.615 35.0241 212.315 32.9896 209.466 30.7555C207.029 28.8428 205.673 27.7411 206.532 26.034C207.16 24.7841 208.58 24.2378 210.836 25.372C213.184 26.552 213.852 28.0337 213.053 30.2293L215.584 31.5013C216.766 28.2384 215.78 25.4133 211.878 23.4515C208.22 21.6124 205.35 22.3081 204.032 24.9298C202.3 28.3747 204.752 30.4095 207.54 32.6129C210.129 34.6786 211.119 35.7489 210.23 37.5171C209.494 38.9803 207.86 39.5719 205.269 38.2692C202.922 37.0891 201.476 35.4074 202.52 32.4952L199.989 31.2231C198.455 34.882 199.837 38.1353 204.166 40.3115Z" fill="#ECB9D3"/>
<path d="M223.452 51.725C224.046 52.1247 224.491 52.2589 224.85 52.336L225.973 50.6653L225.888 50.6082C224.423 50.0347 224.578 49.1931 225.378 48.0037L230.06 41.0377C232.402 37.5546 230.888 34.8517 227.774 32.7578C223.894 30.1499 220.597 31.0174 218.609 33.792L220.818 35.2768C222.387 33.1251 224.262 32.9052 226.641 34.5042C228.736 35.9128 229.297 37.6468 228.193 39.2892C227.127 40.875 225.55 40.1024 223.273 39.0243C219.24 37.135 216.045 36.0155 213.723 39.4703C211.857 42.2454 213.162 45.0137 215.937 46.8792C218.429 48.5543 220.73 48.3739 222.369 47.8313L222.397 47.8503C221.615 49.5035 221.951 50.7161 223.452 51.725ZM217.627 45.4662C216.126 44.4573 214.883 43.0046 216.196 41.0507C217.643 38.8986 219.75 39.7394 222.329 40.8566C223.728 41.4676 225.306 41.9942 226.394 42.0267L224.719 44.5186C223.577 46.2177 220.686 47.522 217.627 45.4662Z" fill="#ECB9D3"/>
<path d="M223.088 58.8038C224.711 60.2137 226.233 60.5424 229.71 58.7265L247.913 49.2755L245.698 47.3508L235.452 53.003C234.078 53.7524 232.316 54.8434 232.316 54.8434L232.264 54.7986C232.264 54.7986 233.073 52.8796 233.623 51.414L237.688 40.3904L235.421 38.4209L229.389 55.8709L227.732 56.7368C226.098 57.5769 225.215 57.397 224.339 56.636C223.644 56.0318 223.318 55.5225 223.169 55.1218L223.066 55.0323L221.454 56.8867C221.82 57.6108 222.29 58.11 223.088 58.8038Z" fill="#ECB9D3"/>
<path d="M236.984 63.5953L238.908 65.5793L251.572 53.2987L249.648 51.3146L236.984 63.5953ZM252.048 48.9868L253.972 50.9708L256.422 48.5955L254.497 46.6114L252.048 48.9868Z" fill="#ECB9D3"/>
<path d="M256.492 58.6625L254.755 56.5131L241.036 67.6026L242.773 69.752L251.212 62.931C253.467 61.1078 256.293 61.4558 258.052 63.6317C259.618 65.5688 259.554 67.5515 257.776 68.9886L248.329 76.6247L250.066 78.7741L259.699 70.9878C262.538 68.6927 262.688 65.6758 260.371 62.81C258.763 60.8198 256.825 60.1049 254.731 60.1741L254.688 60.1211L256.492 58.6625Z" fill="#ECB9D3"/>
<path d="M250.102 89.8206C252.525 93.8182 255.984 95.3125 259.953 92.9072L274.221 84.2589L272.789 81.8954L270.863 83.0627L270.828 83.0043C271.638 81.1164 271.636 79.2029 270.309 77.0144C268.187 73.5129 263.658 72.2282 258.96 75.0756C254.612 77.7108 253.117 82.2877 255.487 86.1977C256.796 88.357 258.425 89.0051 260.527 89.2473L260.563 89.3057L258.433 90.5968C255.806 92.1885 253.614 91.4024 251.934 88.6304C250.519 86.296 250.206 84.3312 251.728 83.0897L250.402 80.9012C247.964 82.7379 247.732 85.9106 250.102 89.8206ZM257.542 85.1118C255.844 82.3106 257.101 79.5137 260.399 77.5152C263.667 75.5344 266.751 75.6201 268.467 78.4505C270.412 81.6603 269.218 84.2989 265.921 86.2974C262.74 88.2251 259.647 88.5842 257.542 85.1118Z" fill="#ECB9D3"/>
<path d="M268.294 189.15L267.193 192.017L281.534 202.642C282.725 203.538 284.676 204.835 284.676 204.835L284.652 204.899C284.652 204.899 282.334 204.557 280.862 204.394L263.205 202.401L262.153 205.14L282.493 220.225L283.607 217.327L270.251 207.848C268.984 206.959 266.739 205.476 266.739 205.476L266.764 205.412C266.764 205.412 269.349 205.82 271.036 205.993L287.313 207.675L288.5 204.586L275.33 194.813C273.992 193.824 271.78 192.353 271.78 192.353L271.804 192.289C271.804 192.289 274.313 192.704 275.988 192.909L292.182 194.998L293.332 192.004L268.294 189.15Z" fill="#ECB9D3"/>
<path d="M278.087 226.949L279.532 224.592L258.73 211.845L257.286 214.202L266.538 219.871C269.011 221.386 269.628 224.166 268.166 226.551C266.865 228.675 264.975 229.278 263.026 228.083L252.669 221.737L251.225 224.093L261.785 230.565C264.898 232.472 267.791 231.604 269.717 228.462C271.054 226.28 271.079 224.215 270.313 222.265L270.349 222.206L278.087 226.949Z" fill="#ECB9D3"/>
<path d="M240.912 236.753C240.461 237.31 240.288 237.741 240.179 238.092L241.744 239.359L241.808 239.279C242.509 237.871 243.334 238.1 244.448 239.002L250.971 244.284C254.232 246.925 257.059 245.658 259.421 242.741C262.363 239.108 261.791 235.748 259.204 233.521L257.529 235.589C259.533 237.344 259.586 239.23 257.782 241.458C256.193 243.42 254.416 243.825 252.878 242.58C251.393 241.377 252.303 239.875 253.578 237.703C255.818 233.852 257.217 230.77 253.982 228.15C251.383 226.046 248.51 227.1 246.405 229.699C244.516 232.032 244.491 234.339 244.886 236.02L244.865 236.047C243.288 235.121 242.05 235.348 240.912 236.753ZM247.663 231.507C248.801 230.102 250.358 228.992 252.188 230.474C254.203 232.106 253.179 234.13 251.837 236.6C251.104 237.938 250.44 239.464 250.311 240.545L247.977 238.655C246.386 237.367 245.344 234.371 247.663 231.507Z" fill="#ECB9D3"/>
<path d="M251.072 248.5L249.271 250.318L240.691 241.816C238.922 240.063 237.115 240.578 235.53 242.177C234.953 242.759 234.497 243.364 234.138 243.921L235.835 245.602L235.907 245.529C236.05 245.239 236.385 244.707 236.77 244.319C237.562 243.519 238.309 243.347 239.182 244.211L247.325 252.281L244.924 254.705L246.523 256.29L248.925 253.866L252.875 257.781L254.821 255.818L250.87 251.903L252.672 250.086L251.072 248.5Z" fill="#ECB9D3"/>
<path d="M222.583 252.762C218.348 255.929 218.272 261.184 221.338 265.283C224.403 269.381 229.464 270.794 233.7 267.627C237.908 264.48 238.038 259.185 234.973 255.086C231.908 250.987 226.791 249.615 222.583 252.762ZM223.973 254.62C226.979 252.372 230.375 253.667 232.705 256.782C235.034 259.897 235.336 263.548 232.331 265.796C229.325 268.044 225.935 266.702 223.606 263.587C221.276 260.471 220.967 256.868 223.973 254.62Z" fill="#ECB9D3"/>
<path d="M223.539 271.464L221.34 272.772L215.166 262.391C213.893 260.25 212.014 260.295 210.078 261.446C209.375 261.865 208.782 262.336 208.294 262.785L209.515 264.838L209.603 264.786C209.815 264.541 210.273 264.109 210.742 263.83C211.71 263.255 212.476 263.275 213.104 264.331L218.964 274.185L216.032 275.929L217.183 277.865L220.115 276.121L222.958 280.901L225.334 279.488L222.491 274.708L224.69 273.4L223.539 271.464Z" fill="#ECB9D3"/>
<path d="M214.233 287.044L216.744 285.89L206.558 263.722L204.046 264.876L208.577 274.736C209.788 277.371 208.754 280.024 206.212 281.192C203.949 282.232 202.043 281.681 201.088 279.604L196.016 268.566L193.505 269.72L198.677 280.975C200.201 284.292 203.088 285.181 206.437 283.642C208.762 282.574 209.932 280.872 210.381 278.826L210.443 278.797L214.233 287.044Z" fill="#ECB9D3"/>
<path d="M183.861 272.319C180.042 273.482 178.024 276.343 178.344 280.205L180.923 279.42C180.815 276.956 182.089 275.284 184.537 274.538C187.931 273.504 190.587 275.549 191.827 278.916L178.771 282.893C180.471 288.475 184.373 291.566 189.432 290.025C194.23 288.564 196.216 283.607 194.725 278.711C193.234 273.815 189.018 270.748 183.861 272.319ZM188.796 287.936C185.76 288.861 183.404 287.331 182.217 284.019L192.368 280.927C192.911 284.115 191.929 286.982 188.796 287.936Z" fill="#ECB9D3"/>
<path d="M175.201 293.117L177.918 292.611L174.688 275.269L171.971 275.775L173.764 285.402C174.37 288.656 172.397 291.106 169.713 291.606C169.177 291.706 168.902 291.722 168.474 291.663L168.374 291.682L168.861 294.298C169.222 294.37 169.502 294.387 170.006 294.293C172.32 293.862 173.869 292.116 174.597 290.245L174.664 290.233L175.201 293.117Z" fill="#ECB9D3"/>
<path d="M157.362 277.244C153.315 277.569 150.569 279.605 150.853 283.142C151.179 287.189 154.201 287.733 157.795 288.163C160.872 288.532 162.602 288.769 162.755 290.673C162.868 292.068 161.938 293.272 159.421 293.475C156.802 293.686 155.461 292.766 155.003 290.476L152.18 290.703C152.865 294.105 155.175 296.007 159.528 295.657C163.609 295.329 165.701 293.243 165.465 290.318C165.156 286.475 162.004 286.01 158.477 285.575C155.191 285.155 153.79 284.754 153.631 282.781C153.5 281.149 154.589 279.795 157.48 279.562C160.099 279.351 162.208 280.037 162.828 283.068L165.651 282.841C165.062 278.918 162.191 276.855 157.362 277.244Z" fill="#ECB9D3"/>
<path d="M130.033 276.944C129.319 276.885 128.865 276.984 128.514 277.092L128.348 279.099L128.45 279.107C130.008 278.894 130.283 279.704 130.165 281.132L129.471 289.497C129.124 293.68 131.763 295.302 135.504 295.612C140.162 295.999 142.618 293.635 143.002 290.243L140.349 290.023C140.028 292.667 138.498 293.772 135.642 293.535C133.125 293.327 131.79 292.086 131.954 290.114C132.111 288.21 133.865 288.116 136.379 287.947C140.822 287.631 144.157 287.052 144.501 282.903C144.777 279.571 142.288 277.789 138.956 277.513C135.963 277.265 134.043 278.544 132.876 279.816L132.842 279.814C132.719 277.989 131.835 277.094 130.033 276.944ZM138.169 279.57C139.971 279.72 141.765 280.382 141.571 282.729C141.356 285.313 139.107 285.606 136.31 285.887C134.791 286.035 133.156 286.345 132.19 286.847L132.438 283.854C132.608 281.814 134.497 279.266 138.169 279.57Z" fill="#ECB9D3"/>
<path d="M121.487 293.415L124.201 293.938L127.533 276.615L124.819 276.093L122.969 285.709C122.344 288.959 119.612 290.518 116.931 290.003C116.395 289.899 116.134 289.814 115.757 289.603L115.657 289.584L115.154 292.197C115.463 292.396 115.718 292.514 116.221 292.611C118.533 293.056 120.613 291.997 121.974 290.521L122.041 290.534L121.487 293.415Z" fill="#ECB9D3"/>
<path d="M110.547 272.112C106.729 270.946 103.458 272.194 101.568 275.577L104.146 276.364C105.431 274.26 107.422 273.583 109.869 274.331C113.263 275.368 114.325 278.547 113.474 282.033L100.421 278.045C98.7165 283.625 100.228 288.368 105.286 289.914C110.083 291.379 114.498 288.375 115.993 283.48C117.489 278.586 115.703 273.687 110.547 272.112ZM105.924 287.825C102.89 286.898 101.788 284.314 102.652 280.903L112.801 284.004C111.472 286.951 109.057 288.782 105.924 287.825Z" fill="#ECB9D3"/>
<path d="M90.9631 264.148C87.3353 262.325 83.9318 262.638 82.3379 265.808C80.5142 269.436 82.8139 271.47 85.6625 273.704C88.0998 275.617 89.4555 276.719 88.5973 278.426C87.9689 279.676 86.5486 280.222 84.2927 279.088C81.9453 277.908 81.2772 276.426 82.0754 274.231L79.5452 272.959C78.3631 276.222 79.3488 279.047 83.2509 281.008C86.9091 282.848 89.7794 282.152 91.0974 279.53C92.8292 276.085 90.3769 274.05 87.5892 271.847C84.9997 269.781 84.0101 268.711 84.899 266.943C85.6347 265.48 87.2687 264.888 89.86 266.191C92.2073 267.371 93.6533 269.053 92.6093 271.965L95.1396 273.237C96.6735 269.578 95.292 266.325 90.9631 264.148Z" fill="#ECB9D3"/>
<path d="M71.6753 252.735C71.0806 252.335 70.6364 252.201 70.277 252.124L69.1539 253.795L69.2389 253.852C70.7035 254.425 70.5489 255.267 69.7494 256.456L65.0666 263.422C62.7252 266.905 64.2385 269.608 67.3534 271.702C71.2329 274.31 74.5295 273.443 76.518 270.668L74.3093 269.183C72.7395 271.335 70.8649 271.555 68.4862 269.956C66.3908 268.547 65.8296 266.813 66.9337 265.171C67.9997 263.585 69.5771 264.358 71.8537 265.436C75.8873 267.325 79.0817 268.444 81.404 264.99C83.2695 262.215 81.9647 259.446 79.1896 257.581C76.6977 255.906 74.3974 256.086 72.7581 256.629L72.7298 256.61C73.5122 254.957 73.1761 253.744 71.6753 252.735ZM77.4997 258.994C79.0005 260.003 80.2441 261.455 78.9307 263.409C77.484 265.561 75.3768 264.721 72.7976 263.603C71.3993 262.992 69.821 262.466 68.7328 262.433L70.4079 259.941C71.5501 258.242 74.4414 256.938 77.4997 258.994Z" fill="#ECB9D3"/>
<path d="M72.0406 245.673C70.418 244.263 68.8954 243.935 65.4189 245.751L47.2162 255.202L49.4311 257.126L59.6769 251.474C61.0513 250.725 62.813 249.634 62.813 249.634L62.8645 249.678C62.8645 249.678 62.0558 251.597 61.5055 253.063L57.441 264.087L59.7075 266.056L65.7401 248.606L67.3966 247.74C69.0307 246.9 69.9141 247.08 70.7897 247.841C71.4851 248.445 71.8111 248.955 71.9601 249.355L72.0631 249.445L73.6745 247.59C73.3093 246.866 72.839 246.367 72.0406 245.673Z" fill="#ECB9D3"/>
<path d="M58.1432 240.865L56.2192 238.881L43.5554 251.161L45.4794 253.145L58.1432 240.865ZM43.079 255.473L41.1549 253.489L38.7054 255.864L40.6295 257.849L43.079 255.473Z" fill="#ECB9D3"/>
<path d="M38.6346 245.815L40.372 247.964L54.0909 236.875L52.3535 234.726L43.9152 241.547C41.6596 243.37 38.8336 243.022 37.0747 240.846C35.5089 238.909 35.5734 236.926 37.3513 235.489L46.798 227.853L45.0606 225.703L35.4281 233.49C32.5888 235.785 32.4389 238.802 34.7555 241.668C36.3642 243.658 38.3022 244.373 40.3961 244.303L40.439 244.356L38.6346 245.815Z" fill="#ECB9D3"/>
<path d="M45.0249 214.655C42.602 210.658 39.1428 209.164 35.1744 211.569L20.9056 220.217L22.3381 222.581L24.264 221.413L24.2993 221.472C23.4885 223.36 23.4912 225.273 24.8177 227.462C26.9399 230.963 31.4691 232.248 36.167 229.4C40.5147 226.765 42.0099 222.188 39.64 218.278C38.3312 216.119 36.7016 215.471 34.5997 215.229L34.5643 215.17L36.6944 213.879C39.3206 212.288 41.5127 213.074 43.1928 215.846C44.6077 218.18 44.9207 220.145 43.399 221.386L44.7254 223.575C47.1632 221.738 47.3948 218.566 45.0249 214.655ZM37.585 219.364C39.2829 222.165 38.0255 224.962 34.7283 226.961C31.4601 228.942 28.3759 228.856 26.6604 226.026C24.715 222.816 25.9086 220.177 29.2059 218.179C32.3865 216.251 35.4804 215.892 37.585 219.364Z" fill="#ECB9D3"/>
<path d="M280.371 179.425C282.368 170.212 283.408 160.692 283.408 151.002C283.408 143.257 282.743 135.409 281.361 127.527C280.047 119.986 278.137 112.718 275.68 105.724L274.076 106.287C276.499 113.179 278.392 120.379 279.689 127.817C281.054 135.613 281.702 143.359 281.702 151.002C281.702 160.556 280.679 169.956 278.717 179.066L280.389 179.425H280.371Z" fill="#ECB9D3"/>
</g>
<defs>
<clipPath id="clip0_1197_6179">
<rect width="295.128" height="304.46" fill="white"/>
</clipPath>
</defs>
</svg>
