<svg width="47" height="10" viewBox="0 0 47 10" fill="none" xmlns="http://www.w3.org/2000/svg">
<path d="M0.477273 1.59801V0.272727H7.44034V1.59801H4.7429V9H3.17472V1.59801H0.477273ZM8.18267 9V0.272727H9.76364V3.96733H13.8077V0.272727H15.3929V9H13.8077V5.29261H9.76364V9H8.18267ZM16.5124 9V0.272727H19.7851C20.4555 0.272727 21.018 0.389204 21.4726 0.622159C21.93 0.855113 22.2751 1.18182 22.5081 1.60227C22.7439 2.01989 22.8618 2.5071 22.8618 3.06392C22.8618 3.62358 22.7425 4.10937 22.5038 4.52131C22.268 4.9304 21.92 5.24716 21.4598 5.47159C20.9996 5.69318 20.4342 5.80398 19.7638 5.80398H17.4328V4.49148H19.5507C19.9428 4.49148 20.2638 4.4375 20.5138 4.32955C20.7638 4.21875 20.9484 4.05824 21.0678 3.84801C21.1899 3.63494 21.251 3.37358 21.251 3.06392C21.251 2.75426 21.1899 2.49006 21.0678 2.27131C20.9456 2.04972 20.7595 1.8821 20.5095 1.76847C20.2595 1.65199 19.9371 1.59375 19.5422 1.59375H18.0933V9H16.5124ZM21.0209 5.04545L23.1814 9H21.4172L19.295 5.04545H21.0209ZM27.7597 9.17614C26.8998 9.17614 26.1593 8.99242 25.5381 8.625C24.9206 8.25379 24.4434 7.73295 24.1063 7.0625C23.7729 6.38826 23.6063 5.59848 23.6063 4.69318C23.6063 3.79924 23.7729 3.01136 24.1063 2.32955C24.4434 1.64773 24.9131 1.11553 25.5153 0.732954C26.1214 0.350379 26.8297 0.159091 27.6403 0.159091C28.1328 0.159091 28.61 0.24053 29.0722 0.403409C29.5343 0.566288 29.9491 0.82197 30.3165 1.17045C30.6839 1.51894 30.9737 1.97159 31.1858 2.52841C31.3979 3.08144 31.504 3.75379 31.504 4.54545V5.14773H24.5665V3.875H29.8392C29.8392 3.42803 29.7483 3.0322 29.5665 2.6875C29.3847 2.33902 29.129 2.06439 28.7994 1.86364C28.4737 1.66288 28.0911 1.5625 27.6517 1.5625C27.1744 1.5625 26.7578 1.67992 26.4017 1.91477C26.0494 2.14583 25.7767 2.44886 25.5835 2.82386C25.3941 3.19508 25.2994 3.59848 25.2994 4.03409V5.02841C25.2994 5.61174 25.4017 6.10795 25.6063 6.51705C25.8146 6.92614 26.1044 7.23864 26.4756 7.45455C26.8468 7.66667 27.2805 7.77273 27.7767 7.77273C28.0987 7.77273 28.3922 7.72727 28.6574 7.63636C28.9225 7.54167 29.1517 7.40152 29.3449 7.21591C29.5381 7.0303 29.6858 6.80114 29.7881 6.52841L31.396 6.81818C31.2672 7.29167 31.0362 7.70644 30.7028 8.0625C30.3733 8.41477 29.9585 8.68939 29.4585 8.88636C28.9623 9.07955 28.396 9.17614 27.7597 9.17614ZM35.2651 9H32.3077V0.272727H35.3247C36.1912 0.272727 36.9355 0.447443 37.5577 0.796875C38.1827 1.14347 38.6628 1.64205 38.998 2.29261C39.3332 2.94318 39.5009 3.72159 39.5009 4.62784C39.5009 5.53693 39.3318 6.31818 38.9937 6.97159C38.6585 7.625 38.1741 8.12642 37.5406 8.47585C36.9099 8.82528 36.1514 9 35.2651 9ZM33.8886 7.6321H35.1884C35.7963 7.6321 36.3034 7.52131 36.7097 7.29972C37.1159 7.07528 37.4213 6.74148 37.6259 6.2983C37.8304 5.85227 37.9327 5.29545 37.9327 4.62784C37.9327 3.96023 37.8304 3.40625 37.6259 2.96591C37.4213 2.52273 37.1187 2.19176 36.7182 1.97301C36.3205 1.75142 35.8261 1.64062 35.2352 1.64062H33.8886V7.6321ZM45.1459 2.67188C45.1061 2.29972 44.9385 2.00994 44.643 1.80256C44.3504 1.59517 43.9697 1.49148 43.501 1.49148C43.1714 1.49148 42.8888 1.54119 42.653 1.64062C42.4172 1.74006 42.2368 1.875 42.1118 2.04545C41.9868 2.21591 41.9229 2.41051 41.92 2.62926C41.92 2.81108 41.9612 2.96875 42.0436 3.10227C42.1288 3.2358 42.2439 3.34943 42.3888 3.44318C42.5337 3.53409 42.6942 3.6108 42.8703 3.6733C43.0464 3.7358 43.224 3.78835 43.403 3.83097L44.2212 4.03551C44.5507 4.11222 44.8675 4.21591 45.1714 4.34659C45.4783 4.47727 45.7524 4.64205 45.9939 4.84091C46.2382 5.03977 46.4314 5.27983 46.5734 5.56108C46.7155 5.84233 46.7865 6.17187 46.7865 6.54972C46.7865 7.06108 46.6558 7.51136 46.3945 7.90057C46.1331 8.28693 45.7553 8.58949 45.2609 8.80824C44.7695 9.02415 44.1743 9.1321 43.4754 9.1321C42.7964 9.1321 42.207 9.02699 41.707 8.81676C41.2098 8.60653 40.8206 8.29972 40.5393 7.89631C40.2609 7.4929 40.1104 7.00142 40.0876 6.42188H41.643C41.6658 6.72585 41.7595 6.97869 41.9243 7.1804C42.0891 7.3821 42.3036 7.53267 42.5678 7.6321C42.8348 7.73153 43.1331 7.78125 43.4626 7.78125C43.8064 7.78125 44.1075 7.73011 44.3661 7.62784C44.6274 7.52273 44.832 7.37784 44.9797 7.19318C45.1274 7.00568 45.2027 6.78693 45.2055 6.53693C45.2027 6.30966 45.1359 6.12216 45.0053 5.97443C44.8746 5.82386 44.6913 5.69886 44.4555 5.59943C44.2226 5.49716 43.9499 5.40625 43.6374 5.3267L42.6445 5.07102C41.9257 4.88636 41.3575 4.60653 40.9399 4.23153C40.5251 3.85369 40.3178 3.35227 40.3178 2.72727C40.3178 2.21307 40.457 1.76278 40.7354 1.37642C41.0166 0.990057 41.3987 0.690341 41.8817 0.477272C42.3646 0.261363 42.9115 0.153409 43.5223 0.153409C44.1416 0.153409 44.6842 0.261363 45.1501 0.477272C45.6189 0.690341 45.9868 0.987216 46.2538 1.3679C46.5209 1.74574 46.6587 2.1804 46.6672 2.67188H45.1459Z" fill="#262626"/>
</svg>
