<svg width="94" height="15" viewBox="0 0 94 15" fill="none" xmlns="http://www.w3.org/2000/svg">
<path d="M0 2.40161V0.198363H14.1339V2.40161H8.65851V14.7072H5.47536V2.40161H0Z" fill="#EEB1CC"/>
<path d="M15.6407 14.7072V0.198363H18.8498V6.34052H27.0585V0.198363H30.2762V14.7072H27.0585V8.54377H18.8498V14.7072H15.6407Z" fill="#EEB1CC"/>
<path d="M32.5485 14.7072V0.198363H39.1916C40.5525 0.198363 41.6943 0.392003 42.617 0.779282C43.5454 1.16656 44.246 1.7097 44.7189 2.40869C45.1975 3.10296 45.4368 3.91294 45.4368 4.83863C45.4368 5.76905 45.1946 6.57667 44.7102 7.26149C44.2316 7.94159 43.5252 8.4682 42.591 8.84131C41.6568 9.2097 40.5093 9.39389 39.1484 9.39389H34.4169V7.2119H38.7159C39.5117 7.2119 40.1633 7.12217 40.6708 6.9427C41.1782 6.7585 41.553 6.49166 41.7952 6.14216C42.0432 5.78794 42.1672 5.35343 42.1672 4.83863C42.1672 4.32384 42.0432 3.8846 41.7952 3.52094C41.5473 3.15255 41.1696 2.8739 40.6621 2.68498C40.1547 2.49134 39.5001 2.39452 38.6986 2.39452H35.7576V14.7072H32.5485ZM41.7001 8.13287L46.0856 14.7072H42.5045L38.1969 8.13287H41.7001Z" fill="#EEB1CC"/>
<path d="M55.3787 15C53.6333 15 52.1302 14.6946 50.8692 14.0838C49.616 13.4666 48.6472 12.6008 47.9629 11.4861C47.2863 10.3652 46.948 9.05227 46.948 7.54723C46.948 6.06108 47.2863 4.75126 47.9629 3.61776C48.6472 2.48426 49.6006 1.5995 50.8231 0.963476C52.0533 0.327456 53.4911 0.00944653 55.1365 0.00944653C56.136 0.00944653 57.1048 0.144837 58.0428 0.415617C58.9809 0.686398 59.8228 1.11146 60.5686 1.69081C61.3144 2.27015 61.9026 3.02267 62.3332 3.94836C62.7637 4.86776 62.979 5.98552 62.979 7.30164V8.3029H48.8971V6.18703H59.5998C59.5998 5.44395 59.4153 4.78589 59.0462 4.21285C58.6772 3.6335 58.1582 3.17695 57.4893 2.8432C56.828 2.50945 56.0515 2.34257 55.1596 2.34257C54.1908 2.34257 53.345 2.53778 52.6223 2.92821C51.9072 3.31234 51.3536 3.81612 50.9615 4.43955C50.5771 5.05667 50.3848 5.72733 50.3848 6.45151V8.10453C50.3848 9.07431 50.5924 9.89924 51.0076 10.5793C51.4305 11.2594 52.0187 11.779 52.7722 12.1379C53.5257 12.4906 54.4061 12.6669 55.4133 12.6669C56.0668 12.6669 56.6627 12.5913 57.2009 12.4402C57.7391 12.2827 58.2043 12.0497 58.5964 11.7412C58.9886 11.4326 59.2884 11.0516 59.496 10.5982L62.7599 11.08C62.4985 11.8671 62.0295 12.5567 61.3529 13.1486C60.6839 13.7343 59.842 14.1908 58.8271 14.5183C57.8199 14.8394 56.6704 15 55.3787 15Z" fill="#EEB1CC"/>
<path d="M70.6134 14.7072H64.6104V0.198363H70.7345C72.4933 0.198363 74.0041 0.488823 75.267 1.06974C76.5357 1.64594 77.5102 2.47481 78.1907 3.55636C78.8711 4.63791 79.2113 5.93199 79.2113 7.4386C79.2113 8.94994 78.8682 10.2487 78.182 11.335C77.5015 12.4213 76.5183 13.2549 75.2324 13.8358C73.9522 14.4167 72.4126 14.7072 70.6134 14.7072ZM67.8195 12.4331H70.4577C71.6917 12.4331 72.7211 12.2489 73.5457 11.8805C74.3703 11.5074 74.9902 10.9525 75.4054 10.2157C75.8206 9.47418 76.0282 8.54849 76.0282 7.4386C76.0282 6.32872 75.8206 5.40775 75.4054 4.67569C74.9902 3.93892 74.3761 3.3887 73.563 3.02503C72.7557 2.65664 71.7523 2.47245 70.5528 2.47245H67.8195V12.4331Z" fill="#EEB1CC"/>
<path d="M90.6698 4.18687C90.5891 3.56817 90.2488 3.08643 89.6491 2.74166C89.0552 2.39688 88.2824 2.2245 87.331 2.2245C86.662 2.2245 86.0883 2.30715 85.6096 2.47245C85.131 2.63775 84.7648 2.86209 84.5111 3.14547C84.2574 3.42884 84.1276 3.75236 84.1219 4.11603C84.1219 4.41829 84.2055 4.68042 84.3727 4.90239C84.5457 5.12437 84.7793 5.31329 85.0733 5.46914C85.3674 5.62028 85.6933 5.7478 86.0508 5.8517C86.4083 5.9556 86.7687 6.04298 87.132 6.11382L88.7928 6.45387C89.4617 6.58139 90.1047 6.75378 90.7217 6.97103C91.3445 7.18829 91.901 7.46222 92.3911 7.79282C92.8871 8.12343 93.2792 8.52251 93.5675 8.99008C93.8558 9.45765 94 10.0055 94 10.6337C94 11.4838 93.7347 12.2324 93.2042 12.8794C92.6737 13.5217 91.9067 14.0247 90.9034 14.3884C89.9057 14.7473 88.6976 14.9268 87.2791 14.9268C85.9009 14.9268 84.7043 14.752 83.6894 14.4026C82.6802 14.0531 81.8902 13.543 81.3193 12.8723C80.7542 12.2017 80.4486 11.3846 80.4024 10.4211H83.5596C83.6058 10.9265 83.7961 11.3468 84.1305 11.6821C84.465 12.0175 84.9004 12.2678 85.4366 12.4331C85.9787 12.5984 86.5842 12.681 87.2531 12.681C87.9509 12.681 88.5621 12.596 89.0869 12.426C89.6174 12.2513 90.0326 12.0104 90.3325 11.7034C90.6323 11.3917 90.7851 11.028 90.7909 10.6124C90.7851 10.2346 90.6496 9.92286 90.3844 9.67727C90.1191 9.42695 89.7472 9.21914 89.2685 9.05384C88.7957 8.88382 88.2421 8.73268 87.6078 8.60044L85.5923 8.17538C84.1334 7.86839 82.9801 7.40318 82.1324 6.77975C81.2905 6.15161 80.8695 5.31801 80.8695 4.27897C80.8695 3.42412 81.1521 2.67554 81.7172 2.03322C82.2881 1.3909 83.0637 0.892632 84.044 0.538413C85.0243 0.179471 86.1344 0 87.3742 0C88.6313 0 89.7327 0.179471 90.6785 0.538413C91.6299 0.892632 92.3767 1.38618 92.9188 2.01905C93.4608 2.6472 93.7405 3.3698 93.7578 4.18687H90.6698Z" fill="#EEB1CC"/>
</svg>
