<svg width="94" height="16" viewBox="0 0 94 16" fill="none" xmlns="http://www.w3.org/2000/svg">
<path d="M0 2.56171V0.211587H14.1339V2.56171H8.65851V15.6877H5.47536V2.56171H0Z" fill="white"/>
<path d="M15.6407 15.6877V0.211587H18.8498V6.76322H27.0585V0.211587H30.2762V15.6877H27.0585V9.11335H18.8498V15.6877H15.6407Z" fill="white"/>
<path d="M32.5485 15.6877V0.211587H39.1916C40.5525 0.211587 41.6943 0.418136 42.617 0.831234C43.5454 1.24433 44.246 1.82368 44.7189 2.56927C45.1975 3.30982 45.4368 4.1738 45.4368 5.16121C45.4368 6.15365 45.1946 7.01511 44.7102 7.74559C44.2316 8.47103 43.5252 9.03274 42.591 9.43073C41.6568 9.82368 40.5093 10.0202 39.1484 10.0202H34.4169V7.69269H38.7159C39.5117 7.69269 40.1633 7.59698 40.6708 7.40554C41.1782 7.20907 41.553 6.92443 41.7952 6.55164C42.0432 6.1738 42.1672 5.71033 42.1672 5.16121C42.1672 4.61209 42.0432 4.14358 41.7952 3.75567C41.5473 3.36272 41.1696 3.06549 40.6621 2.86398C40.1547 2.65743 39.5001 2.55416 38.6986 2.55416H35.7576V15.6877H32.5485ZM41.7001 8.67506L46.0856 15.6877H42.5045L38.1969 8.67506H41.7001Z" fill="white"/>
<path d="M55.3787 16C53.6333 16 52.1302 15.6742 50.8692 15.0227C49.616 14.3644 48.6472 13.4408 47.9629 12.2519C47.2863 11.0563 46.948 9.65575 46.948 8.05038C46.948 6.46516 47.2863 5.06801 47.9629 3.85894C48.6472 2.64987 49.6006 1.70613 50.8231 1.02771C52.0533 0.349287 53.4911 0.0100763 55.1365 0.0100763C56.136 0.0100763 57.1048 0.154493 58.0428 0.443325C58.9809 0.732158 59.8228 1.18556 60.5686 1.80353C61.3144 2.42149 61.9026 3.22418 62.3332 4.21159C62.7637 5.19228 62.979 6.38455 62.979 7.78841V8.85642H48.8971V6.5995H59.5998C59.5998 5.80689 59.4153 5.10495 59.0462 4.4937C58.6772 3.87573 58.1582 3.38875 57.4893 3.03275C56.828 2.67674 56.0515 2.49874 55.1596 2.49874C54.1908 2.49874 53.345 2.70697 52.6223 3.12343C51.9072 3.53317 51.3536 4.07053 50.9615 4.73552C50.5771 5.39379 50.3848 6.10915 50.3848 6.88161V8.64484C50.3848 9.67926 50.5924 10.5592 51.0076 11.2846C51.4305 12.0101 52.0187 12.5642 52.7722 12.9471C53.5257 13.3233 54.4061 13.5113 55.4133 13.5113C56.0668 13.5113 56.6627 13.4307 57.2009 13.2695C57.7391 13.1016 58.2043 12.8531 58.5964 12.5239C58.9886 12.1948 59.2884 11.7884 59.496 11.3048L62.7599 11.8186C62.4985 12.6583 62.0295 13.3938 61.3529 14.0252C60.6839 14.6499 59.842 15.1369 58.8271 15.4861C57.8199 15.8287 56.6704 16 55.3787 16Z" fill="white"/>
<path d="M70.6134 15.6877H64.6104V0.211587H70.7345C72.4933 0.211587 74.0041 0.521411 75.267 1.14106C76.5357 1.75567 77.5102 2.6398 78.1907 3.79345C78.8711 4.9471 79.2113 6.32746 79.2113 7.93451C79.2113 9.5466 78.8682 10.932 78.182 12.0907C77.5015 13.2494 76.5183 14.1385 75.2324 14.7582C73.9522 15.3778 72.4126 15.6877 70.6134 15.6877ZM67.8195 13.262H70.4577C71.6917 13.262 72.7211 13.0655 73.5457 12.6725C74.3703 12.2746 74.9902 11.6826 75.4054 10.8967C75.8206 10.1058 76.0282 9.11839 76.0282 7.93451C76.0282 6.75063 75.8206 5.76826 75.4054 4.9874C74.9902 4.20151 74.3761 3.61461 73.563 3.2267C72.7557 2.83375 71.7523 2.63728 70.5528 2.63728H67.8195V13.262Z" fill="white"/>
<path d="M90.6698 4.466C90.5891 3.80605 90.2488 3.29219 89.6491 2.92443C89.0552 2.55667 88.2824 2.3728 87.331 2.3728C86.662 2.3728 86.0883 2.46096 85.6096 2.63728C85.131 2.8136 84.7648 3.0529 84.5111 3.35516C84.2574 3.65743 84.1276 4.00252 84.1219 4.39043C84.1219 4.71285 84.2055 4.99244 84.3727 5.22922C84.5457 5.466 84.7793 5.66751 85.0733 5.83375C85.3674 5.99496 85.6933 6.13098 86.0508 6.24181C86.4083 6.35264 86.7687 6.44584 87.132 6.52141L88.7928 6.88413C89.4617 7.02015 90.1047 7.20403 90.7217 7.43577C91.3445 7.66751 91.901 7.9597 92.3911 8.31234C92.8871 8.66499 93.2792 9.09068 93.5675 9.58942C93.8558 10.0882 94 10.6725 94 11.3426C94 12.2494 93.7347 13.0479 93.2042 13.738C92.6737 14.4232 91.9067 14.9597 90.9034 15.3476C89.9057 15.7305 88.6976 15.9219 87.2791 15.9219C85.9009 15.9219 84.7043 15.7355 83.6894 15.3627C82.6802 14.9899 81.8902 14.4458 81.3193 13.7305C80.7542 13.0151 80.4486 12.1436 80.4024 11.1159H83.5596C83.6058 11.6549 83.7961 12.1033 84.1305 12.461C84.465 12.8186 84.9004 13.0856 85.4366 13.262C85.9787 13.4383 86.5842 13.5264 87.2531 13.5264C87.9509 13.5264 88.5621 13.4358 89.0869 13.2544C89.6174 13.068 90.0326 12.8111 90.3325 12.4836C90.6323 12.1511 90.7851 11.7632 90.7909 11.3199C90.7851 10.9169 90.6496 10.5844 90.3844 10.3224C90.1191 10.0554 89.7472 9.83375 89.2685 9.65743C88.7957 9.47607 88.2421 9.31486 87.6078 9.1738L85.5923 8.7204C84.1334 8.39295 82.9801 7.89673 82.1324 7.23174C81.2905 6.56171 80.8695 5.67254 80.8695 4.56423C80.8695 3.65239 81.1521 2.8539 81.7172 2.16877C82.2881 1.48363 83.0637 0.952141 84.044 0.574307C85.0243 0.191436 86.1344 0 87.3742 0C88.6313 0 89.7327 0.191436 90.6785 0.574307C91.6299 0.952141 92.3767 1.47859 92.9188 2.15365C93.4608 2.82368 93.7405 3.59446 93.7578 4.466H90.6698Z" fill="white"/>
</svg>
