<svg width="24" height="25" viewBox="0 0 24 25" fill="none" xmlns="http://www.w3.org/2000/svg">
<path fill-rule="evenodd" clip-rule="evenodd" d="M19.7711 8.51075C19.7779 8.68564 19.7802 8.86045 19.7802 9.03534C19.7802 14.3375 16.0503 20.4586 9.22975 20.4586C7.13458 20.4586 5.18638 19.7909 3.54492 18.6541C3.83508 18.6859 4.12976 18.7098 4.42896 18.7098C6.16614 18.7098 7.76615 18.0658 9.03531 16.9847C7.41269 16.9608 6.04255 15.7923 5.57 14.2024C5.79685 14.2501 6.03047 14.274 6.26938 14.274C6.60627 14.274 6.93335 14.2264 7.24687 14.131C5.54888 13.7653 4.26994 12.1437 4.26994 10.1961C4.26994 10.1723 4.26994 10.1643 4.26994 10.1484C4.77037 10.4425 5.34314 10.6252 5.95134 10.6491C4.95501 9.92569 4.30007 8.69357 4.30007 7.30244C4.30007 6.5711 4.48246 5.87948 4.80351 5.28328C6.63188 7.71577 9.36542 9.31361 12.4471 9.48055C12.3838 9.18642 12.3514 8.87647 12.3514 8.56645C12.3514 6.34859 14.0117 4.552 16.0601 4.552C17.1265 4.552 18.0897 5.03698 18.7657 5.81601C19.6121 5.64113 20.405 5.30728 21.1224 4.84622C20.8443 5.78424 20.2572 6.57106 19.49 7.06392C20.2407 6.96853 20.9566 6.75406 21.6206 6.43609C21.1224 7.23897 20.4954 7.94635 19.7711 8.51075Z" fill="#E8E8DF"/>
</svg>
