<svg width="777" height="324" viewBox="0 0 777 324" fill="none" xmlns="http://www.w3.org/2000/svg">
<path d="M12.8645 322.279C-2.6194 309.78 -1.24426 284.838 9.64768 263.961C23.1577 238.059 50.6727 220.337 76.2574 208.937C123.118 188.053 178.429 181.913 216.284 139.109C231.273 122.162 239.418 101.686 237.26 82.6964C235.102 63.7071 223.972 50.0024 206.507 44.859C188.786 39.6385 166.717 43.8268 148.273 56.7104C127.982 70.8795 113.702 92.9035 107.268 114.617C100.834 136.331 101.531 159.241 105.832 179.357C110.399 200.701 119.104 220.33 131.86 236.646C155.661 267.103 193.918 284.196 238.898 279.199C279.302 274.705 320.441 252.194 346.963 215.654C359.295 198.666 368.06 179.549 371.349 160.724C374.955 140.088 370.838 121.787 362.681 105.496C353.419 86.9929 340.201 71.2302 331.672 52.2294C323.142 33.2285 321.223 10.8645 329.833 -12.8696C337.935 -35.2097 353.942 -56.4313 374.84 -70.7212C395.349 -84.7418 419.494 -92.0354 441.015 -90.6874C464.034 -89.2497 480.732 -76.5521 499.203 -67.1374C515.306 -58.9299 533.13 -54.5764 554.063 -59.5922C592.384 -68.7716 627.832 -102.236 638.862 -139.706C650.342 -178.707 637.409 -218.323 607.09 -235.54C592.669 -243.732 573.559 -247.184 554.278 -240.03C534.568 -232.714 519.077 -215.471 510.469 -196.886C488.959 -150.463 513.051 -112.01 533.679 -80.4618C546.04 -61.5531 558.792 -41.9826 562.701 -18.0176C564.519 -6.85259 564.254 5.84336 558.245 17.8663C552.985 28.38 542.562 38.2854 531.222 41.1073C519.192 44.099 510.162 37.464 507.09 27.7004C503.887 17.519 507.585 5.56603 515.424 -4.69037C533.75 -28.6669 563.314 -35.275 588.51 -40.3159C633.906 -49.3985 683.188 -57.9134 724.488 -89.5476C741.981 -102.945 757.628 -120.007 767.21 -139.143C777.292 -159.279 778.533 -179.516 773.46 -197.598C767.634 -218.362 755.173 -235.085 745.015 -253.128C734.857 -271.171 725.875 -292.315 731.396 -316.544C736.098 -337.187 750.857 -359.608 772.942 -367.513C773.683 -367.776 773.57 -368.839 772.835 -368.581C754.082 -361.871 740.231 -344.772 733.476 -327.028C725.444 -305.939 728.549 -286.127 735.736 -268.966C751.026 -232.49 788.039 -200.576 771.18 -151.266C755.622 -105.773 708.097 -74.6186 664.996 -59.9327C640.166 -51.4755 615.163 -46.7392 590.297 -41.7793C568.044 -37.3395 543.784 -32.5632 524.369 -15.5923C508.825 -2.00314 499.479 18.3154 508.155 33.1752C516.041 46.6803 534.997 45.253 549.113 31.7617C566.154 15.4681 566.698 -6.80128 562.768 -23.9727C557.801 -45.6743 546.165 -63.6988 534.632 -81.3242C512.949 -114.477 487.139 -157.018 516.22 -205.554C528.664 -226.33 549.596 -241.36 572.015 -242.675C593.031 -243.905 611.157 -234.45 623.033 -220.852C646.954 -193.487 649.745 -145.429 621.397 -106.815C608.333 -89.015 589.723 -74.3432 569.907 -65.9396C548.424 -56.8314 527.728 -56.472 509.722 -63.6666C490.71 -71.2604 475.351 -84.5401 454.839 -89.7328C436.793 -94.3024 415.503 -91.6782 395.555 -83.19C354.875 -65.8732 324.684 -24.3156 322.914 15.3377C320.926 60.0436 357.304 85.0543 368.477 123.269C379.279 160.229 359.653 206.823 325.312 238.59C289.821 271.42 241.831 283.7 202.572 277.29C156.857 269.824 125.333 236.805 111.542 195.647C98.3294 156.254 98.0407 98.3455 143.538 61.5014C163.812 45.0838 189.627 39.6334 209.346 47.0769C229.064 54.5203 238.575 73.8178 236.105 95.9092C233.381 120.257 215.117 142.596 193.493 158.168C170.854 174.472 145.41 183.218 120.547 191.526C77.423 205.936 18.7885 226.917 3.21247 276.801C-2.36389 294.605 -0.606977 313.022 11.9275 323.146C12.4216 323.542 13.363 322.681 12.8645 322.279Z" fill="#E8E8DF"/>
</svg>
