<svg width="1094" height="404" viewBox="0 0 1094 404" fill="none" xmlns="http://www.w3.org/2000/svg">
<path d="M818.19 -525.27C854.62 -469.6 871.25 -401.95 865.09 -335.71C859.2 -272.36 831.49 -212.39 788.43 -165.72C745.37 -119.05 684.92 -87.6704 620.88 -74.0904C552.93 -59.6804 482.88 -61.2304 413.8 -60.3304C286.25 -58.6604 143.74 -43.1704 55.2699 60.0496C19.4999 101.79 -4.22006 156.42 0.629943 212.15C4.99994 262.37 30.8399 312.09 72.5699 341.19C125.13 377.84 189.37 367.53 244.81 343.14C278.89 328.15 311.06 309.01 343.53 290.9L446.33 233.57C511.49 197.23 575.96 157.99 644.48 128.21C713 98.4296 790.72 78.9796 865.88 93.8396C925.75 105.67 983.91 141.25 1012.33 196.67C1040.75 252.09 1036.44 323.54 992.2 367.51C952.67 406.8 882.2 416.65 837.67 380.08C812.35 359.28 798.2 326.99 800.13 294.32C801.92 263.99 816.27 235.09 836.91 213.14C884.36 162.68 959.92 156.66 1024.09 171.04C1095.7 187.09 1158.76 226.62 1225.15 256.12C1285.1 282.75 1356.43 305.72 1421.79 285.47C1448.89 277.08 1473.04 260.28 1487.67 235.65C1501.23 212.83 1504.78 184.74 1492.96 160.45C1482.51 138.97 1461.98 122.73 1437.73 121.31C1437.09 121.27 1437.09 122.27 1437.73 122.31C1470.16 124.21 1495.81 153.29 1498.97 184.8C1502.26 217.62 1482.73 249.21 1456.61 267.62C1396.1 310.27 1311.52 290.14 1248.44 264.9C1181.15 237.98 1119.36 198.15 1049.77 176.86C989.49 158.41 918.05 154.64 862.95 190.1C818.36 218.79 787.53 276 802.94 329.1C810.81 356.24 830 380.11 855.39 392.72C877.23 403.56 902.52 406.08 926.38 401.93C980.89 392.44 1020.04 349.51 1028.88 295.51C1038.27 238.19 1014.73 181.36 971.51 143.59C924.14 102.2 860.82 85.3996 798.82 88.0796C726.22 91.2196 657.62 118.54 593.7 151.34C524.69 186.75 457.6 226.16 389.87 263.94C355.77 282.96 321.86 302.36 287.49 320.89C254.91 338.45 220.79 354.95 184.14 361.77C151.34 367.87 117.13 364.96 87.4199 349.13C63.0399 336.14 42.9799 315.93 28.4799 292.55C-2.75006 242.21 -6.55006 181.09 15.4899 126.47C38.6699 69.0295 85.8799 22.7996 139.9 -6.20044C203.28 -40.2304 275.75 -52.7704 346.84 -57.1204C477.79 -65.1304 624.6 -42.9604 739.24 -121.73C787.24 -154.71 825.19 -202.04 846.9 -256.08C870.35 -314.48 873.36 -379.99 857.12 -440.67C849.04 -470.86 836.18 -499.59 819.07 -525.74C818.72 -526.28 817.85 -525.78 818.21 -525.24L818.19 -525.27Z" fill="#231F20"/>
</svg>
